<svg width="41" height="44" viewBox="0 0 41 44" fill="none" xmlns="http://www.w3.org/2000/svg">
    <path d="M20.1641 0C10.8962 0 3.15772 5.72778 0 13.8203L3.3418 15.1797C5.98267 8.41113 12.3901 3.625 20.1641 3.625C26.0405 3.625 31.2798 6.50659 34.5508 10.875H27.4141V14.5H40.1016V1.8125H36.4766V7.41992C32.5046 2.86743 26.6353 0 20.1641 0ZM36.9863 28.3203C34.3455 35.0889 27.938 39.875 20.1641 39.875C14.2239 39.875 9.00586 36.9509 5.7207 32.625H12.9141V29H0.226562V41.6875H3.85156V36.0801C7.81641 40.5759 13.6292 43.5 20.1641 43.5C29.4319 43.5 37.1704 37.7722 40.3281 29.6797L36.9863 28.3203Z" fill="#F04E37"/>
</svg>
