<svg width="110" height="39" viewBox="0 0 110 39" fill="none" xmlns="http://www.w3.org/2000/svg">
    <g clip-path="url(#clip0)">
        <path d="M101.445 4.87064C104.214 4.87064 106.629 3.15347 106.869 0.947175C105.86 0.947175 104.857 0.947175 103.859 0.947175C103.682 0.988656 103.52 1.07672 103.389 1.20215C102.85 1.61734 102.188 1.84264 101.507 1.84264C100.826 1.84264 100.165 1.61734 99.6261 1.20215C99.4746 1.09808 99.3178 0.936768 99.1558 0.936768C98.0793 0.936768 97.0028 0.936768 95.9106 0.936768C96.3862 3.53854 98.9207 4.86544 101.439 4.85503" fill="#F04E37"/>
        <path d="M36.264 12.7498C36.264 11.1158 35.4592 9.62763 33.2278 9.51315C31.1376 9.51315 29.9356 10.8296 29.6796 12.7498H36.264ZM41.2389 15.7366H29.69C30.0193 18.1198 31.3727 19.1865 33.9699 19.1865C35.8104 19.1426 37.5949 18.5479 39.0911 17.4798C40.2012 18.3688 40.9116 19.6601 41.0664 21.0702C38.8463 22.6992 36.1411 23.5385 33.3846 23.4534C28.0074 23.4534 24.1299 20.2168 24.1299 14.5658C24.1299 9.23216 28.0074 5.50122 33.2017 5.50122C38.1034 5.50122 41.4322 8.52448 41.4322 13.2493C41.4441 14.0821 41.3829 14.9144 41.2493 15.7366" fill="#F04E37"/>
        <path d="M64.0631 5.39111C62.0363 5.39027 60.0482 5.94279 58.3148 6.9886C56.9979 5.99472 55.0958 5.39111 52.6449 5.39111C51.2079 5.39132 49.778 5.59097 48.3964 5.98432C47.7906 5.9198 47.1819 5.8868 46.5726 5.88545C45.6661 5.88561 44.761 5.95694 43.8657 6.0988V22.8438C44.761 22.9854 45.6661 23.0567 46.5726 23.0571C47.4948 23.0573 48.4156 22.9859 49.3266 22.8438V10.8756C50.1842 10.3905 51.1571 10.1442 52.1432 10.1628C54.1917 10.1628 55.2787 11.2659 55.2787 13.3629V22.8438C56.1738 22.9868 57.079 23.0581 57.9856 23.0571C58.9042 23.0567 59.8215 22.9854 60.7291 22.8438V12.2182C60.722 11.8703 60.6976 11.5229 60.6559 11.1774C61.4982 10.5449 62.5274 10.2082 63.5823 10.22C65.6308 10.22 66.655 11.3231 66.655 13.4202V22.8438C68.4729 23.1282 70.3242 23.1282 72.142 22.8438V12.2182C72.142 8.27387 69.5292 5.39111 64.0944 5.39111" fill="#F04E37"/>
        <path d="M82.7342 19.7156C83.6191 19.7058 84.4983 19.5745 85.3471 19.3253V16.2292C84.3704 15.9604 83.3608 15.829 82.3475 15.8389C80.6283 15.8389 79.5675 16.4061 79.5675 17.6498C79.5675 18.8934 80.6126 19.7312 82.7029 19.7312L82.7342 19.7156ZM90.7505 12.9041V21.7501C87.9656 22.8479 84.9978 23.4128 82.0026 23.4153C77.0278 23.4153 74.1641 21.568 74.1641 17.8683C74.1641 14.3143 77.2995 12.4983 81.7361 12.5347C82.9733 12.5449 84.2035 12.7199 85.3941 13.055V12.3786C85.3941 10.9216 84.349 9.89128 81.8093 9.89128C80.1298 9.89278 78.4901 10.4007 77.1061 11.3483C76.4818 11.002 75.9459 10.5173 75.5399 9.93168C75.134 9.34605 74.8688 8.67523 74.765 7.97118C76.9112 6.34014 79.5433 5.47016 82.243 5.4995C87.291 5.4995 90.7661 7.63295 90.7661 12.8937" fill="#F04E37"/>
        <path d="M8.17611 3.37177e-05C7.99887 -0.00163983 7.82674 0.0590333 7.69003 0.171361C7.55333 0.283689 7.46082 0.440462 7.42883 0.614051C7.42883 0.614051 5.62596 11.5415 4.85779 16.2247C4.66443 17.4007 4.18367 18.3061 2.96608 18.5975L2.71002 18.6495C2.61408 18.6565 2.52085 18.6844 2.43689 18.7311C2.35292 18.7779 2.28027 18.8424 2.22403 18.9201C2.07866 19.0959 1.97984 19.3052 1.93662 19.5289C1.6611 20.6484 1.6611 21.8177 1.93662 22.9372C2.12474 23.7229 2.30242 23.827 2.84066 23.7386C3.47182 23.6314 4.09641 23.489 4.71146 23.3119C7.96708 22.1827 9.74904 19.8047 10.4284 16.6253C10.9248 14.3098 12.4089 4.79249 12.4089 4.79249H16.161V22.8435C17.0676 22.9971 17.9849 23.0806 18.9045 23.0933C19.8172 23.0814 20.7275 22.9979 21.6271 22.8435V3.37177e-05H8.17611Z" fill="#F04E37"/>
        <path d="M107.257 5.92188C106.35 5.92374 105.445 5.99507 104.55 6.13522V18.2959C103.685 18.6663 102.748 18.8439 101.807 18.8162C99.1937 18.8162 98.4777 17.7131 98.4777 15.4027V6.13522C97.5824 5.99362 96.6774 5.92229 95.7708 5.92188C94.8522 5.92226 93.9349 5.99359 93.0273 6.13522V16.5891C93.0273 20.1067 94.7257 22.5836 98.8697 23.2601C99.9439 23.4306 101.038 23.4411 102.115 23.2913C103.04 23.1768 104.069 22.9635 104.55 22.8906C105.458 23.0322 106.375 23.1036 107.294 23.104C108.2 23.1035 109.105 23.0322 110 22.8906V6.13522C109.093 5.99359 108.176 5.92226 107.257 5.92188Z" fill="#F04E37"/>
        <path d="M0 34.7362C0 33.8362 0.300335 33.0871 0.901006 32.489C1.5074 31.8909 2.27969 31.5918 3.21788 31.5918C3.64693 31.5918 4.06454 31.6659 4.47071 31.814C4.87688 31.9564 5.22584 32.17 5.51759 32.4548L4.82253 33.5827C4.61658 33.4004 4.37346 33.2523 4.09314 33.1384C3.81855 33.0187 3.54968 32.9589 3.28653 32.9589C2.71446 32.9589 2.28255 33.1298 1.9908 33.4716C1.69904 33.8077 1.55316 34.2178 1.55316 34.702C1.55316 35.1976 1.7019 35.6277 1.99938 35.9923C2.30257 36.3568 2.73162 36.5391 3.28653 36.5391C3.87004 36.5391 4.4135 36.2885 4.91692 35.7872L5.68921 36.8809C5.02561 37.5645 4.20184 37.9063 3.21788 37.9063C2.24537 37.9063 1.46449 37.6101 0.875263 37.0176C0.291754 36.4195 0 35.659 0 34.7362Z" fill="#F04E37"/>
        <path d="M6.6234 37.8037V31.6943H10.4677V32.976H8.12508V34.0868H9.99574V35.3685H8.12508V36.522H10.5878V37.8037H6.6234Z" fill="#F04E37"/>
        <path d="M11.7392 37.8037V31.6943H14.2877C14.8827 31.6943 15.3632 31.8909 15.7293 32.2839C16.1012 32.677 16.2871 33.1811 16.2871 33.7963C16.2871 34.4172 16.1012 34.927 15.7293 35.3258C15.3632 35.7189 14.8827 35.9154 14.2877 35.9154H13.2408V37.8037H11.7392ZM13.2408 34.6337H13.9788C14.2305 34.6337 14.4222 34.5568 14.5537 34.403C14.691 34.2492 14.7597 34.047 14.7597 33.7963C14.7597 33.5457 14.6939 33.3463 14.5623 33.1982C14.4307 33.0501 14.2448 32.976 14.0045 32.976H13.2408V34.6337Z" fill="#F04E37"/>
        <path d="M17.2739 37.8037V31.6943H19.5307C20.16 31.6943 20.6634 31.8339 21.041 32.113C21.4243 32.3864 21.6159 32.7795 21.6159 33.2922C21.6159 33.5542 21.553 33.8049 21.4271 34.0441C21.3013 34.2777 21.1268 34.4599 20.9037 34.591V34.608C21.2298 34.7049 21.47 34.8843 21.6245 35.1464C21.7847 35.4027 21.8648 35.6818 21.8648 35.9837C21.8648 36.6046 21.6445 37.0632 21.204 37.3594C20.7635 37.6556 20.2058 37.8037 19.5307 37.8037H17.2739ZM18.7756 34.0612H19.5479C19.7252 34.0612 19.8597 34.0071 19.9512 33.8988C20.0427 33.7906 20.0885 33.6567 20.0885 33.4972C20.0885 33.3434 20.0399 33.2181 19.9426 33.1213C19.8511 33.0244 19.7109 32.976 19.5221 32.976H18.7756V34.0612ZM18.7756 36.522H19.6766C19.8825 36.522 20.0427 36.4622 20.1571 36.3426C20.2715 36.2173 20.3288 36.0635 20.3288 35.8812C20.3288 35.6989 20.2744 35.5508 20.1657 35.4369C20.057 35.3173 19.8968 35.2574 19.6852 35.2574H18.7756V36.522Z" fill="#F04E37"/>
        <path d="M23.0014 37.8037V31.6943H24.5031V34.5482L24.4344 35.5907H24.4516C24.6347 35.1635 24.8063 34.816 24.9665 34.5482L26.6655 31.6943H28.1843V37.8037H26.6827V34.9584L26.7513 33.9159H26.7341C26.5511 34.3432 26.3795 34.6906 26.2193 34.9584L24.5117 37.8037H23.0014Z" fill="#F04E37"/>
        <path d="M29.3162 34.7362C29.3162 33.8362 29.6166 33.0871 30.2172 32.489C30.8236 31.8909 31.5959 31.5918 32.5341 31.5918C32.9632 31.5918 33.3808 31.6659 33.7869 31.814C34.1931 31.9564 34.5421 32.17 34.8338 32.4548L34.1387 33.5827C33.9328 33.4004 33.6897 33.2523 33.4094 33.1384C33.1348 33.0187 32.8659 32.9589 32.6027 32.9589C32.0307 32.9589 31.5988 33.1298 31.307 33.4716C31.0153 33.8077 30.8694 34.2178 30.8694 34.702C30.8694 35.1976 31.0181 35.6277 31.3156 35.9923C31.6188 36.3568 32.0478 36.5391 32.6027 36.5391C33.1863 36.5391 33.7297 36.2885 34.2331 35.7872L35.0054 36.8809C34.3418 37.5645 33.5181 37.9063 32.5341 37.9063C31.5616 37.9063 30.7807 37.6101 30.1915 37.0176C29.608 36.4195 29.3162 35.659 29.3162 34.7362Z" fill="#F04E37"/>
        <path d="M41.0882 37.8037V31.6943H42.5899V37.8037H41.0882ZM35.9396 37.8037V31.6943H37.4413V33.5827H38.4024C38.9973 33.5827 39.4779 33.7821 39.844 34.1808C40.2158 34.5739 40.4018 35.0809 40.4018 35.7018C40.4018 36.317 40.2158 36.8211 39.844 37.2142C39.4779 37.6072 38.9973 37.8037 38.4024 37.8037H35.9396ZM37.4413 36.522H38.1192C38.3595 36.522 38.5454 36.448 38.677 36.2999C38.8085 36.1518 38.8743 35.9524 38.8743 35.7018C38.8743 35.4511 38.8057 35.2489 38.6684 35.0951C38.5368 34.9413 38.3452 34.8644 38.0935 34.8644H37.4413V36.522Z" fill="#F04E37"/>
        <path d="M47.9599 36.5306H49.8563V32.976H48.6293V33.258C48.6293 33.8219 48.5749 34.4001 48.4662 34.9926C48.3633 35.585 48.1945 36.0977 47.9599 36.5306ZM45.7889 36.5306H46.4239C46.9445 35.6306 47.2048 34.4998 47.2048 33.1384V31.6943H51.358V36.5306H52.0445V39H50.7145V37.8037H47.1705V39H45.7889V36.5306Z" fill="#F04E37"/>
        <path d="M52.6577 36.5135C52.9209 36.4793 53.1354 36.3853 53.3013 36.2315C53.4729 36.0777 53.6131 35.7929 53.7218 35.3771C53.8305 34.9612 53.8848 34.403 53.8848 33.7023V31.6943H58.0037V37.8037H56.502V32.976H55.3092V33.7194C55.3092 35.1834 55.089 36.2429 54.6485 36.898C54.208 37.5474 53.5444 37.8721 52.6577 37.8721V36.5135Z" fill="#F04E37"/>
        <path d="M58.8864 37.8037L60.062 35.8385L60.2937 35.4711V35.454C59.6358 35.0894 59.3069 34.4856 59.3069 33.6425C59.3069 33.1925 59.4098 32.8137 59.6158 32.5061C59.8217 32.1928 60.0963 31.9706 60.4395 31.8396C60.6913 31.7428 61.0888 31.6943 61.6323 31.6943H63.769V37.8037H62.2673V35.7445H61.7181L60.5597 37.8037H58.8864ZM61.6152 34.5055H62.2673V32.976H61.761C61.4235 32.976 61.1832 33.033 61.0402 33.1469C60.9029 33.2608 60.8343 33.4517 60.8343 33.7194C60.8343 34.2435 61.0946 34.5055 61.6152 34.5055Z" fill="#F04E37"/>
        <path d="M66.9555 37.8037L68.6031 34.6337V34.6166L67.0842 31.6943H68.6974L69.8301 34.0526H70.4136V31.6943H71.9153V34.0526H72.4988L73.6315 31.6943H75.2448L73.7259 34.6166V34.6337L75.3735 37.8037H73.6916L72.4988 35.3258H71.9153V37.8037H70.4136V35.3258H69.8301L68.6374 37.8037H66.9555Z" fill="#F04E37"/>
        <path d="M76.2416 37.8037V31.6943H77.7432V34.5482L77.6746 35.5907H77.6917C77.8748 35.1635 78.0464 34.816 78.2066 34.5482L79.9056 31.6943H81.4245V37.8037H79.9228V34.9584L79.9915 33.9159H79.9743C79.7912 34.3432 79.6196 34.6906 79.4594 34.9584L77.7518 37.8037H76.2416Z" fill="#F04E37"/>
        <path d="M82.3676 36.9749L83.1485 35.9923C83.5661 36.3967 84.0008 36.5989 84.4528 36.5989C84.9905 36.5989 85.2594 36.3711 85.2594 35.9154C85.2594 35.5166 85.0191 35.3173 84.5386 35.3173H83.8006V34.1296H84.4013C84.6187 34.1296 84.7903 34.0697 84.9162 33.9501C85.0477 33.8305 85.1135 33.6852 85.1135 33.5143C85.1135 33.3207 85.0477 33.1669 84.9162 33.0529C84.7903 32.9333 84.6158 32.8735 84.3927 32.8735C83.9694 32.8735 83.5461 33.0415 83.1227 33.3776L82.5478 32.3095C83.1256 31.831 83.8349 31.5918 84.6759 31.5918C84.9962 31.5918 85.2994 31.6516 85.5855 31.7712C85.8772 31.8852 86.1261 32.0788 86.332 32.3523C86.538 32.62 86.6409 32.9418 86.6409 33.3178C86.6409 33.8931 86.3749 34.3375 85.8429 34.6508V34.6679C86.1404 34.7704 86.3749 34.9413 86.5465 35.1805C86.7182 35.4141 86.804 35.6961 86.804 36.0265C86.804 36.6018 86.5923 37.0604 86.169 37.4021C85.7457 37.7382 85.2279 37.9063 84.6158 37.9063C83.7234 37.9063 82.974 37.5958 82.3676 36.9749Z" fill="#F04E37"/>
        <path d="M87.9396 37.8037V31.6943H89.4412V34.1381H91.6723V31.6943H93.174V37.8037H91.6723V35.4112H89.4412V37.8037H87.9396Z" fill="#F04E37"/>
        <path d="M94.6307 37.8037V31.6943H96.1324V34.5482L96.0638 35.5907H96.0809C96.264 35.1635 96.4356 34.816 96.5958 34.5482L98.2948 31.6943H99.8137V37.8037H98.312V34.9584L98.3806 33.9159H98.3635C98.1804 34.3432 98.0088 34.6906 97.8486 34.9584L96.141 37.8037H94.6307Z" fill="#F04E37"/>
    </g>
    <defs>
        <clipPath id="clip0">
            <rect width="110.001" height="39" fill="white"/>
        </clipPath>
    </defs>
</svg>
