<svg width="84" height="25" viewBox="0 0 84 25" fill="none" xmlns="http://www.w3.org/2000/svg">
    <g clip-path="url(#clip0)">
        <path fill-rule="evenodd" clip-rule="evenodd" d="M45.1585 9.21156C45.3606 9.42125 47.1789 14.4168 47.369 15.0335C47.5584 15.6943 47.8258 16.3282 48.1653 16.9208C48.7952 17.0688 48.8546 16.415 49.0448 15.897C50.0787 13.097 51.6475 9.01421 52.4319 6.26357C52.9785 4.93142 53.0261 4.57371 52.0397 4.57371C51.0533 4.57371 51.1602 5.23978 50.768 6.10321C50.4234 7.74373 49.0923 11.2098 48.605 12.801C48.605 13.0107 48.605 13.0107 48.3555 13.0107C47.5354 10.6424 46.5847 7.74373 45.6577 5.40014C45.4081 4.94375 44.9684 4.84507 44.6712 5.86885C44.1721 7.49704 43.4828 9.43359 42.948 11.0124C42.948 11.0124 42.3062 13.0107 42.2587 13.1093C41.9188 12.5422 41.6699 11.9215 41.5218 11.2715C40.785 9.38425 40.1432 7.34902 39.5134 5.46181C39.3589 5.1041 39.3589 4.89441 39.0142 4.68472C38.6687 4.55186 38.2952 4.51777 37.9327 4.58604C36.9582 4.7464 37.5881 5.56049 37.7901 6.16489C38.9786 9.48293 40.2977 13.467 41.6169 16.6247C41.6478 16.703 41.698 16.7714 41.7625 16.8231C41.8269 16.8748 41.9034 16.9079 41.9841 16.9192C42.0649 16.9304 42.147 16.9194 42.2224 16.8872C42.2977 16.855 42.3635 16.8028 42.4132 16.7357C42.6033 16.3534 45.0159 9.21156 45.1585 9.21156Z" fill="white"/>
        <path fill-rule="evenodd" clip-rule="evenodd" d="M0.186812 4.78318C0.137685 4.98866 0.154373 5.20516 0.23435 5.39992C0.436387 6.26335 -0.15784 16.1064 -0.00334089 16.5012C0.477715 16.7257 1.01706 16.7778 1.52977 16.6492C1.76746 16.3901 1.67238 16.1435 1.67238 15.7364C1.67238 13.9972 1.815 12.3197 1.815 10.5312C1.87442 9.86508 1.92196 9.4087 1.92196 9.00165C1.92196 8.59461 1.92196 8.64395 2.01703 8.54527C2.11211 8.44659 3.66899 11.2589 3.82348 11.5673C4.1206 12.1717 4.70294 13.0968 5.09513 13.8122C5.68936 14.9346 5.98647 14.1699 6.12909 13.9109C6.47374 13.4545 9.13588 8.60694 9.32603 8.50826C9.5043 8.70562 9.5043 13.5532 9.5043 13.9109C9.5043 16.5628 9.20718 16.8219 10.8235 16.7108C11.3226 16.7108 11.3702 16.3038 11.3226 15.8474C11.3226 14.984 11.3226 14.0095 11.3226 13.1461C11.1919 10.9505 11.0968 8.44659 11.0968 6.26335C11.0968 6.00432 11.1919 5.02987 11.1919 4.88186C11.0464 4.71169 10.8493 4.59816 10.6332 4.56003C10.4171 4.5219 10.1949 4.56146 10.0035 4.67217C9.6588 4.88186 9.56372 5.33824 9.31415 5.64661C8.31584 7.48448 6.97289 9.56905 6.03401 11.3082C5.68936 11.925 5.68936 11.7153 5.39224 11.3082C4.75048 10.3338 3.91856 8.65628 3.33622 7.68184L2.14776 5.64661C1.98257 5.29293 1.77056 4.96494 1.51788 4.67217C1.18511 4.42547 0.531464 4.62283 0.186812 4.78318Z" fill="white"/>
        <path fill-rule="evenodd" clip-rule="evenodd" d="M62.9029 10.4943C63.3236 10.1381 63.8226 9.89539 64.3555 9.78779C64.8884 9.68019 65.4386 9.71104 65.9573 9.87759C67.526 10.593 67.7281 12.9983 67.0388 14.1701C66.7452 14.6268 66.3223 14.9776 65.8284 15.1742C65.3346 15.3709 64.7941 15.4036 64.2815 15.2679C63.785 15.1662 63.3151 14.9559 62.9029 14.6511V10.4943ZM62.9029 8.75514C62.8288 7.41175 62.8288 6.06507 62.9029 4.72168C62.9029 4.16662 62.7128 4.06794 62.2136 4.2653C61.0252 4.78336 61.0252 4.57367 61.1916 5.69613C61.2866 6.26352 61.1916 12.8379 61.1916 13.763C61.1916 15.5886 60.942 16.0079 63.4972 16.7727C64.2247 16.9311 64.9756 16.9351 65.7047 16.7846C66.4339 16.6341 67.1261 16.3322 67.7399 15.8969C70.2476 13.763 69.5583 7.74369 64.9827 8.20007C64.5839 8.22248 64.1869 8.27192 63.7943 8.34809C63.6398 8.39743 63.0574 8.75514 62.9861 8.75514H62.9029Z" fill="white"/>
        <path fill-rule="evenodd" clip-rule="evenodd" d="M28.2469 16.6125C28.4327 15.9693 28.4854 15.2925 28.4014 14.6266C28.3527 13.9286 28.3527 13.2278 28.4014 12.5297C28.544 12.5297 28.6985 12.7887 28.9956 13.0971C29.2927 13.4055 31.7409 16.0574 32.1331 16.3535C32.2699 16.4857 32.4349 16.5825 32.6145 16.636C32.7942 16.6896 32.9835 16.6985 33.1671 16.6618C33.5117 16.6618 34.0584 16.6618 34.2485 16.4152C34.2485 16.0574 33.5592 15.4901 33.2621 15.1817C32.965 14.8733 32.5847 14.4786 32.2401 14.0592C31.4841 13.3688 30.7772 12.6226 30.1246 11.8266C30.1246 11.7156 32.8224 9.35969 33.3216 8.91564C33.5117 8.70595 33.7137 8.65662 33.6662 8.34825C33.0545 8.1524 32.4001 8.1524 31.7884 8.34825C31.5508 8.45926 29.9226 9.98877 29.4828 10.3958C29.3402 10.5438 28.4964 11.4689 28.4014 11.4196C28.2587 10.9509 28.4014 4.57382 28.3063 4.21612C28.2112 3.85841 26.5355 4.42581 26.583 5.04254C26.6762 5.47587 26.724 5.91837 26.7256 6.36236V15.1817C26.7256 15.4901 26.6306 16.4152 26.8326 16.5632C27.295 16.6858 27.7776 16.7027 28.2469 16.6125Z" fill="white"/>
        <path fill-rule="evenodd" clip-rule="evenodd" d="M15.4477 12.4311C15.9944 12.2831 17.8246 12.7395 17.9078 13.2452C17.9553 13.7909 17.9553 14.34 17.9078 14.8857C17.5631 15.3421 15.1981 16.2549 14.4137 14.6267C14.308 14.3954 14.2532 14.1426 14.2532 13.8866C14.2532 13.6306 14.308 13.3778 14.4137 13.1465C14.5278 12.9585 14.6789 12.7975 14.8571 12.6742C15.0353 12.5509 15.2365 12.4681 15.4477 12.4311ZM17.9553 11.8144C17.4935 11.4968 16.977 11.2749 16.4341 11.1606C15.7576 11.0829 15.073 11.133 14.4137 11.3086C13.8586 11.4737 13.3691 11.8192 13.0173 12.2944C12.6655 12.7697 12.4698 13.3496 12.4592 13.9488C12.4486 14.548 12.6235 15.135 12.9582 15.6234C13.2929 16.1117 13.7698 16.4758 14.3187 16.6619C15.2587 16.9946 16.2784 16.9946 17.2185 16.6619C17.4205 16.5632 17.8127 16.3042 17.9553 16.2549C18.0979 16.2055 18.1574 16.6126 18.3475 16.7112C18.5377 16.8099 19.429 16.7112 19.6786 16.4646C19.9282 16.2179 19.9757 16.2549 19.8212 15.8972C19.5912 15.4252 19.5082 14.8907 19.5835 14.3676V10.6919C19.6457 10.1714 19.5232 9.64529 19.2389 9.21174C18.3 7.27518 12.6429 8.03994 13.0945 9.68046C13.5462 11.321 14.283 9.11306 16.7788 9.42143C18.1217 9.56944 17.9791 10.9016 17.9791 11.8144H17.9553Z" fill="white"/>
        <path fill-rule="evenodd" clip-rule="evenodd" d="M76.1296 11.5674H72.0532C72.1079 11.061 72.3306 10.59 72.6831 10.2353C73.068 9.88502 73.5515 9.67304 74.0617 9.63089C74.3275 9.6081 74.595 9.64114 74.8482 9.72803C75.1014 9.81492 75.3351 9.95388 75.5354 10.1366C75.7371 10.3088 75.8962 10.5285 75.9995 10.7773C76.1029 11.0262 76.1475 11.2971 76.1296 11.5674ZM71.9463 12.8873C72.2434 12.7392 76.7001 12.8873 77.5083 12.8873C78.3164 12.8873 77.948 10.1366 76.4743 9.01415C75.8722 8.5483 75.1555 8.26867 74.4069 8.20755C73.6582 8.14643 72.9082 8.30631 72.2434 8.66873C71.5785 9.03115 71.026 9.58133 70.6496 10.2558C70.2732 10.9302 70.0882 11.7013 70.1161 12.4802C70.0878 13.2367 70.2574 13.987 70.6069 14.6515C70.9563 15.316 71.4725 15.87 72.1008 16.2546C73.42 17.1797 76.9616 17.1304 77.4013 15.6996C77.948 13.8617 76.6645 14.8855 76.2128 15.0828C75.833 15.2444 75.4328 15.3483 75.0244 15.3912C72.3979 15.6996 71.7561 13.2943 71.9463 12.8873Z" fill="white"/>
        <path fill-rule="evenodd" clip-rule="evenodd" d="M54.1091 11.5674C54.1508 11.0406 54.3815 10.5492 54.7557 10.1906C55.1299 9.83192 55.6201 9.63217 56.1294 9.63085C57.1515 9.51984 58.34 10.4449 58.1379 11.5674H54.1091ZM53.907 12.8009C54.1566 12.8009 58.7797 12.8009 59.4215 12.8009C60.0632 12.8009 59.9563 12.3938 59.9087 11.8881C59.874 11.2032 59.6685 10.5394 59.3123 9.96179C58.9561 9.38414 58.4614 8.91242 57.8767 8.59285C57.292 8.27327 56.6374 8.1168 55.9769 8.13875C55.3165 8.1607 54.6728 8.36033 54.1091 8.71808C53.4751 9.10678 52.9567 9.66933 52.6108 10.3439C52.2648 11.0185 52.1047 11.779 52.1481 12.5418C52.0977 13.2949 52.2611 14.0468 52.618 14.7045C52.975 15.3621 53.5099 15.8968 54.1566 16.2423C55.8323 17.3154 59.1244 16.859 59.4215 15.6379C59.4215 15.2802 59.6592 14.4044 59.1244 14.6141C58.4783 14.9931 57.7751 15.2559 57.0446 15.3912C56.6551 15.4452 56.2592 15.4185 55.8798 15.3126C55.5003 15.2067 55.1449 15.0238 54.834 14.7744C54.4062 14.4167 53.7169 13.3436 53.907 12.8009Z" fill="white"/>
        <path fill-rule="evenodd" clip-rule="evenodd" d="M80.5996 16.6618C80.8967 16.3534 80.8492 16.2054 80.8492 15.749V14.5156C80.8492 12.8874 80.5521 10.1861 82.3704 9.77904C82.7626 9.68036 82.8577 10.0257 83.3569 9.92706C83.6512 9.65296 83.8723 9.30454 83.9986 8.91561C83.9986 8.13852 82.8102 7.99051 81.7287 8.49623C81.384 8.65658 81.0988 9.21164 80.8492 9.26098C80.8492 8.8046 80.9443 8.60724 80.6472 8.2002C80.2662 8.23811 79.8975 8.36007 79.5657 8.5579C79.0784 8.8046 78.9833 8.8046 79.0784 9.42133C79.1735 10.0381 79.0784 14.2689 79.0784 15.2803C79.1259 16.8222 79.1259 16.7728 80.5996 16.6618Z" fill="white"/>
        <path fill-rule="evenodd" clip-rule="evenodd" d="M22.6496 16.6128V16.5141C22.7876 15.2613 22.8233 13.9987 22.7566 12.7397C22.7566 11.7652 22.9943 10.1864 24.0282 9.87802C24.8601 9.56965 24.9077 10.3837 25.4544 9.87802C26.726 8.49653 25.0146 7.94147 23.9807 8.39785C22.9467 8.85424 23.0893 9.21194 22.7922 9.31062C22.7684 9.10991 22.7684 8.90692 22.7922 8.70622C22.7922 8.44719 22.6853 8.44719 22.5902 8.29917C22.2091 8.29595 21.8347 8.40272 21.5087 8.60754C21.0214 8.8049 20.8669 8.85424 21.0214 9.47097C21.126 10.4166 21.1578 11.3694 21.1165 12.3203V15.1326C21.2235 16.6621 21.0214 16.7731 22.6496 16.6128Z" fill="white"/>
        <path fill-rule="evenodd" clip-rule="evenodd" d="M44.8145 18.2531C42.8526 18.5043 40.9235 18.98 39.0624 19.6716C38.48 19.9306 37.8739 20.0786 37.2916 20.3377C36.1031 20.7941 34.986 21.2011 33.8094 21.6698C33.4172 21.8178 30.6125 22.6813 30.1252 22.7923C27.7483 23.3967 24.1829 24.1121 21.913 23.039C20.8315 22.4839 20.7245 24.2108 23.1846 24.8275C24.6233 25.089 26.0996 25.0217 27.5106 24.6302C28.699 24.3711 30.1252 23.9147 31.2542 23.557C32.3833 23.1993 33.7143 22.7923 34.9384 22.4346C35.2356 22.3236 35.4732 22.2249 35.8179 22.1262L37.6362 21.5588C37.9809 21.4601 38.2305 21.3121 38.5276 21.2011L40.4053 20.7447C40.75 20.646 40.9996 20.5474 41.2967 20.4364C43.785 19.8854 46.3229 19.6125 48.8671 19.6223C49.497 19.6223 50.4359 19.7826 51.0777 19.8813C52.2661 20.0293 52.0047 19.3756 51.2203 18.9562C49.1808 18.1452 46.9723 17.9028 44.8145 18.2531Z" fill="#F9CC46"/>
    </g>
    <defs>
        <clipPath id="clip0">
            <rect width="84" height="25" fill="white"/>
        </clipPath>
    </defs>
</svg>
