<svg width="206" height="226" viewBox="0 0 206 226" fill="none" xmlns="http://www.w3.org/2000/svg">
    <ellipse cx="103" cy="113.504" rx="103" ry="103" transform="rotate(90 103 113.504)" fill="#D7F0FE"/>
    <path d="M45.9891 0.504531H51.0961C49.8903 0.490122 48.6946 0.72501 47.5838 1.19447C46.4731 1.66392 45.4714 2.35782 44.6415 3.23264C43.8116 4.10745 43.1713 5.14432 42.761 6.2782C42.3507 7.41208 42.179 8.61852 42.2569 9.82186L50.3855 164.942C50.5521 167.44 51.6532 169.784 53.4696 171.507C55.2859 173.23 57.6844 174.205 60.1876 174.24H55.0807C52.5746 174.215 50.171 173.242 48.3527 171.517C46.5344 169.792 45.4361 167.444 45.2785 164.942L37.1632 9.82186C37.0845 8.61942 37.255 7.41369 37.6642 6.28028C38.0734 5.14686 38.7124 4.11023 39.541 3.2354C40.3697 2.36057 41.3703 1.66642 42.4799 1.19649C43.5895 0.726554 44.7842 0.490975 45.9891 0.504531Z" fill="#263238"/>
    <path opacity="0.3" d="M45.9891 0.504531H51.0961C49.8903 0.490122 48.6946 0.72501 47.5838 1.19447C46.4731 1.66392 45.4714 2.35782 44.6415 3.23264C43.8116 4.10745 43.1713 5.14432 42.761 6.2782C42.3507 7.41208 42.179 8.61852 42.2569 9.82186L50.3855 164.942C50.5521 167.44 51.6532 169.784 53.4696 171.507C55.2859 173.23 57.6844 174.205 60.1876 174.24H55.0807C52.5746 174.215 50.171 173.242 48.3527 171.517C46.5344 169.792 45.4361 167.444 45.2785 164.942L37.1632 9.82186C37.0845 8.61942 37.255 7.41369 37.6642 6.28028C38.0734 5.14686 38.7124 4.11023 39.541 3.2354C40.3697 2.36057 41.3703 1.66642 42.4799 1.19649C43.5895 0.726554 44.7842 0.490975 45.9891 0.504531Z" fill="white"/>
    <path d="M57.9438 174.253H120.515C121.718 174.266 122.911 174.03 124.018 173.561C125.126 173.092 126.125 172.4 126.953 171.527C127.782 170.655 128.421 169.621 128.832 168.49C129.243 167.36 129.416 166.157 129.341 164.956L121.213 9.82228C121.046 7.32438 119.945 4.98081 118.129 3.25798C116.312 1.53515 113.914 0.559379 111.41 0.524877H48.839C47.6361 0.512503 46.4436 0.748205 45.3359 1.21727C44.2282 1.68633 43.2291 2.37869 42.4009 3.25113C41.5727 4.12356 40.9332 5.15734 40.5224 6.28794C40.1115 7.41854 39.9382 8.62169 40.0131 9.82228L48.1417 164.943C48.3051 167.443 49.4048 169.79 51.2215 171.516C53.0382 173.241 55.4384 174.219 57.9438 174.253Z" fill="#263238"/>
    <path d="M126.132 165.095L118.003 9.97444C117.893 8.23325 117.129 6.598 115.864 5.39613C114.6 4.19425 112.928 3.51444 111.183 3.49282H98.4324L98.5984 6.70707C98.6262 7.09139 98.5736 7.47728 98.444 7.84016C98.3144 8.20304 98.1107 8.53498 97.8458 8.81483C97.581 9.09469 97.2608 9.31634 96.9055 9.46568C96.5503 9.61502 96.1679 9.68876 95.7827 9.68223H65.5727C64.7245 9.68366 63.9078 9.36038 63.2903 8.77873C62.6729 8.19708 62.3014 7.40117 62.2522 6.55432L62.0929 3.49282H48.6183C47.8214 3.48101 47.0306 3.6344 46.2959 3.94332C45.5612 4.25223 44.8985 4.70998 44.3494 5.28771C43.8004 5.86545 43.377 6.55064 43.1059 7.30012C42.8348 8.0496 42.7218 8.84711 42.7742 9.64239L50.8895 164.783C50.9999 166.524 51.7639 168.159 53.0286 169.361C54.2932 170.563 55.9652 171.243 57.7098 171.264H120.288C121.087 171.278 121.881 171.126 122.618 170.817C123.355 170.507 124.019 170.048 124.569 169.467C125.119 168.887 125.542 168.198 125.811 167.446C126.08 166.693 126.189 165.892 126.132 165.095Z" fill="#FAFAFA"/>
    <path opacity="0.1" d="M126.132 165.095L118.003 9.97444C117.893 8.23325 117.129 6.598 115.864 5.39613C114.6 4.19425 112.928 3.51444 111.183 3.49282H98.4324L98.5984 6.70707C98.6262 7.09139 98.5736 7.47728 98.444 7.84016C98.3144 8.20304 98.1107 8.53498 97.8458 8.81483C97.581 9.09469 97.2608 9.31634 96.9055 9.46568C96.5503 9.61502 96.1679 9.68876 95.7827 9.68223H65.5727C64.7245 9.68366 63.9078 9.36038 63.2903 8.77873C62.6729 8.19708 62.3014 7.40117 62.2522 6.55432L62.0929 3.49282H48.6183C47.8214 3.48101 47.0306 3.6344 46.2959 3.94332C45.5612 4.25223 44.8985 4.70998 44.3494 5.28771C43.8004 5.86545 43.377 6.55064 43.1059 7.30012C42.8348 8.0496 42.7218 8.84711 42.7742 9.64239L50.8895 164.783C50.9999 166.524 51.7639 168.159 53.0286 169.361C54.2932 170.563 55.9652 171.243 57.7098 171.264H120.288C121.087 171.278 121.881 171.126 122.618 170.817C123.355 170.507 124.019 170.048 124.569 169.467C125.119 168.887 125.542 168.198 125.811 167.446C126.08 166.693 126.189 165.892 126.132 165.095Z" fill="black"/>
    <g opacity="0.8">
        <path opacity="0.8" d="M108.516 119.047H64.1277C61.9428 119.047 61.4713 115.653 63.6562 115.653H108.045C110.23 115.653 110.701 119.047 108.516 119.047Z" fill="white"/>
        <path opacity="0.8" d="M102.307 127.567H64.573C62.3882 127.567 61.9166 124.174 64.1015 124.174H101.836C104.021 124.174 104.492 127.567 102.307 127.567Z" fill="white"/>
        <path opacity="0.8" d="M107.592 136.088H65.0234C62.8385 136.088 62.367 132.694 64.5452 132.694H107.114C109.306 132.694 109.77 136.088 107.592 136.088Z" fill="white"/>
        <path opacity="0.8" d="M95.2157 144.608H65.5039C63.319 144.608 62.8475 141.215 65.0257 141.215H94.7243C96.9092 141.215 97.3807 144.608 95.2024 144.608H95.2157Z" fill="white"/>
    </g>
    <path opacity="0.2" d="M55.3984 170.84C56.1416 171.119 56.9288 171.263 57.7228 171.265H88.6034L119.491 38.385L118.003 9.97478C117.893 8.23359 117.129 6.59835 115.864 5.39647C114.599 4.19459 112.927 3.51478 111.183 3.49316H98.4321L98.5982 6.70741C98.6259 7.09174 98.5733 7.47762 98.4437 7.8405C98.3141 8.20339 98.1104 8.53532 97.8455 8.81518C97.5807 9.09503 97.2605 9.31669 96.9053 9.46602C96.55 9.61536 96.1676 9.68911 95.7824 9.68258H92.8603L55.3984 170.84Z" fill="white"/>
    <path opacity="0.2" d="M96.5124 171.265L120.945 66.1509L120.114 50.2324L91.9766 171.265H96.5124Z" fill="white"/>
    <path d="M182.493 106.097L183.483 109.039C183.622 109.45 182.859 112.426 183.151 113.143L184.924 116.862C185.163 117.28 185.553 117.591 186.013 117.732C186.751 117.837 187.503 117.702 188.158 117.347L189.108 116.849C189.344 116.731 189.539 116.545 189.669 116.316C189.799 116.086 189.858 115.823 189.838 115.56C189.752 114.272 189.838 111.821 189.546 110.911C189.481 110.681 189.355 110.472 189.181 110.307L187.786 108.979C187.587 108.757 187.444 108.49 187.368 108.202L186.478 104.881C186.405 104.612 186.274 104.363 186.094 104.15C185.913 103.937 185.688 103.767 185.435 103.651C185.181 103.535 184.905 103.476 184.627 103.479C184.348 103.481 184.073 103.545 183.822 103.666L183.476 103.839C183.07 104.036 182.748 104.372 182.567 104.786C182.387 105.2 182.361 105.665 182.493 106.097Z" fill="#FFBE9D"/>
    <path d="M123.64 94.2098L118.991 95.1661C118.915 95.2311 118.825 95.2765 118.728 95.2985C118.63 95.3205 118.529 95.3184 118.433 95.2923L112.456 93.6254C112.327 93.5793 112.186 93.5793 112.058 93.6254L107.077 95.7705C106.939 95.8294 106.829 95.9382 106.769 96.075C106.709 96.2118 106.702 96.3664 106.751 96.5076C106.802 96.6508 106.904 96.7695 107.039 96.8398C107.173 96.9101 107.329 96.9267 107.475 96.8861L109.992 96.1756C110.113 96.138 110.243 96.1403 110.363 96.1822C110.482 96.224 110.585 96.3032 110.656 96.408L112.874 99.6156C112.924 99.6849 112.987 99.7432 113.06 99.7867C113.134 99.8301 113.215 99.8578 113.299 99.8679L115.83 100.14C115.908 100.16 115.99 100.16 116.069 100.14L120.651 98.6859C120.718 98.6657 120.781 98.6343 120.837 98.5929L125.207 98.0882C125.27 98.0385 125.323 97.9766 125.361 97.9061C125.4 97.8357 125.424 97.7581 125.432 97.6782C125.44 97.5982 125.432 97.5174 125.408 97.4407C125.384 97.3639 125.345 97.2928 125.293 97.2315L124.476 94.2364C124.423 94.1796 124.359 94.1338 124.289 94.1017C124.218 94.0697 124.141 94.0519 124.063 94.0494C123.986 94.0469 123.908 94.0598 123.836 94.0874C123.763 94.1149 123.696 94.1565 123.64 94.2098Z" fill="#FFBE9D"/>
    <path d="M143.342 93.6314C142.99 97.6758 121.479 99.3693 121.479 99.3693L120.477 94.1494L136.475 89.2882C132.935 66.8948 140.745 65.9717 140.745 65.9717C140.745 65.9717 144.484 80.303 143.342 93.6314Z" fill="#007BC3"/>
    <g opacity="0.6">
        <path opacity="0.6" d="M143.342 93.6314C142.99 97.6758 121.479 99.3693 121.479 99.3693L120.477 94.1494L136.475 89.2882C132.935 66.8948 140.745 65.9717 140.745 65.9717C140.745 65.9717 144.484 80.303 143.342 93.6314Z" fill="white"/>
    </g>
    <path d="M147.184 208.74L147.695 221.006L152.762 220.794L153.459 208.475L147.184 208.74Z" fill="#FFBE9D"/>
    <path opacity="0.2" d="M147.441 215.016L153.106 214.777L153.458 208.475L147.176 208.74L147.441 215.016Z" fill="#263238"/>
    <path d="M142.027 107.757L146.517 213.92L153.822 213.608C153.822 213.608 157.727 189.614 156.85 173.437C156.757 171.763 156.186 167.566 156.312 166.132C156.554 164.02 156.954 161.928 157.508 159.876C159.281 152.431 160.934 139.561 159.931 129.918C159.931 129.918 169.475 119.718 166.931 106.675L142.027 107.757Z" fill="#007BC3"/>
    <path opacity="0.2" d="M160.749 128.942L158.325 123.629L156.479 124.486C156.479 124.486 156.28 132.647 159.501 148.008C160.263 142.013 160.401 135.955 159.912 129.931C159.912 129.931 160.238 129.586 160.749 128.942Z" fill="black"/>
    <path d="M144.705 219.179C143.948 219.179 143.151 219.073 142.892 218.754C142.828 218.662 142.793 218.552 142.793 218.439C142.793 218.326 142.828 218.216 142.892 218.124C142.939 218.038 143.003 217.963 143.079 217.903C143.156 217.843 143.243 217.798 143.337 217.772C144.353 217.466 146.525 218.635 146.618 218.688C146.644 218.701 146.666 218.722 146.679 218.748C146.693 218.775 146.697 218.805 146.691 218.834C146.687 218.864 146.675 218.893 146.655 218.915C146.634 218.938 146.608 218.954 146.578 218.96C145.961 219.086 145.334 219.16 144.705 219.179ZM143.702 218.011C143.61 218.01 143.518 218.024 143.43 218.05C143.369 218.061 143.311 218.085 143.262 218.122C143.212 218.159 143.172 218.208 143.145 218.263C143.045 218.442 143.085 218.529 143.145 218.575C143.437 218.967 144.984 218.94 146.12 218.774C145.37 218.367 144.55 218.108 143.702 218.011Z" fill="#007BC3"/>
    <path d="M146.552 218.955H146.519C145.781 218.642 144.274 217.354 144.393 216.657C144.393 216.491 144.52 216.285 144.918 216.238C145.062 216.22 145.209 216.23 145.349 216.269C145.489 216.308 145.621 216.374 145.735 216.464C146.532 217.088 146.731 218.742 146.744 218.815C146.748 218.841 146.743 218.868 146.731 218.892C146.72 218.915 146.701 218.935 146.678 218.948C146.659 218.96 146.638 218.967 146.616 218.968C146.594 218.969 146.572 218.965 146.552 218.955ZM144.998 216.511H144.911C144.652 216.544 144.639 216.643 144.626 216.683C144.626 217.102 145.589 218.118 146.359 218.549C146.274 217.856 145.974 217.206 145.502 216.69C145.362 216.571 145.182 216.509 144.998 216.517V216.511Z" fill="#007BC3"/>
    <path d="M147.184 218.084L153.871 217.925C153.994 217.923 154.114 217.962 154.212 218.037C154.31 218.112 154.379 218.217 154.409 218.337L155.737 223.749C155.793 223.982 155.755 224.227 155.63 224.431C155.506 224.635 155.305 224.782 155.073 224.838H154.887C152.476 224.838 150.325 224.772 147.323 224.838C143.783 224.925 144.667 225.33 140.529 225.502C138.019 225.595 137.494 222.753 138.537 222.587C143.392 221.856 143.85 220.375 145.703 218.602C146.114 218.249 146.642 218.064 147.184 218.084Z" fill="#263238"/>
    <path d="M183.895 208.163L187.428 219.924L192.289 218.463L189.918 206.35L183.895 208.163Z" fill="#FFBE9D"/>
    <path opacity="0.2" d="M185.389 213.123L191.007 211.935L189.918 206.35L183.895 208.163L185.389 213.123Z" fill="#263238"/>
    <path d="M152.024 112.154C158.591 136.971 184.325 212.326 184.325 212.326L191.405 210.699C191.405 210.699 187.825 184.507 182.685 169.691C181.862 167.334 180.693 165.401 180.115 163.635C179.404 161.39 179.677 159.703 178.946 154.337C178.103 148.148 176.867 140.032 175.446 133.677C175.068 131.97 174.815 130.509 174.636 129.088C174.424 127.421 174.364 126.186 174.211 122.314C173.992 117.001 171.96 109.736 169.835 105.107L150.762 105.911C150.762 105.911 151.612 110.586 152.024 112.154Z" fill="#007BC3"/>
    <path d="M183.515 217.831C182.916 218.056 182.255 218.056 181.656 217.831C181.57 217.757 181.51 217.657 181.483 217.546C181.457 217.435 181.466 217.319 181.51 217.214C181.568 217.027 181.696 216.87 181.868 216.776C182.791 216.251 185.189 216.908 185.268 216.942C185.297 216.949 185.323 216.965 185.342 216.987C185.361 217.01 185.373 217.038 185.375 217.068C185.375 217.098 185.367 217.127 185.352 217.153C185.336 217.178 185.315 217.2 185.288 217.214C184.716 217.47 184.123 217.676 183.515 217.831ZM182.28 216.908C182.188 216.934 182.099 216.97 182.014 217.015C181.96 217.04 181.911 217.077 181.872 217.122C181.833 217.168 181.804 217.222 181.789 217.28C181.729 217.48 181.789 217.559 181.842 217.592C182.214 217.911 183.714 217.546 184.784 217.128C183.971 216.896 183.121 216.821 182.28 216.908Z" fill="#007BC3"/>
    <path d="M185.267 217.207C185.248 217.214 185.227 217.214 185.207 217.207C184.417 217.074 182.664 216.145 182.617 215.441C182.617 215.275 182.664 215.049 183.042 214.916C183.178 214.866 183.323 214.844 183.468 214.851C183.613 214.858 183.755 214.893 183.886 214.956C184.802 215.387 185.367 216.948 185.393 217.021C185.401 217.046 185.403 217.073 185.397 217.099C185.391 217.125 185.378 217.148 185.36 217.167C185.334 217.19 185.301 217.204 185.267 217.207ZM183.208 215.162H183.122C182.876 215.248 182.883 215.354 182.883 215.394C182.949 215.806 184.138 216.576 184.988 216.829C184.746 216.174 184.311 215.609 183.74 215.208C183.576 215.123 183.387 215.102 183.208 215.148V215.162Z" fill="#007BC3"/>
    <path d="M185.7 216.218L192.189 214.578C192.307 214.548 192.432 214.559 192.543 214.61C192.654 214.661 192.744 214.748 192.799 214.857L195.303 219.837C195.357 219.942 195.39 220.056 195.4 220.174C195.41 220.291 195.397 220.409 195.361 220.522C195.325 220.634 195.268 220.738 195.192 220.828C195.116 220.918 195.023 220.992 194.918 221.046C194.861 221.074 194.8 221.096 194.739 221.112C192.388 221.664 190.276 222.062 187.367 222.799C183.934 223.669 184.91 223.855 180.886 224.938C178.455 225.602 177.313 222.945 178.309 222.534C182.884 220.747 183.017 219.213 184.412 217.042C184.724 216.617 185.184 216.323 185.7 216.218Z" fill="#263238"/>
    <g opacity="0.2">
        <path opacity="0.2" d="M163.886 112.512L163.281 110.055C160.95 110.526 158.779 110.872 156.793 111.111L157.059 113.634C159.137 113.382 161.428 113.017 163.886 112.512Z" fill="black"/>
        <path opacity="0.2" d="M148.02 111.576C146.242 111.551 144.468 111.413 142.707 111.164L142.933 113.761C144.695 113.985 146.469 114.107 148.246 114.126L148.02 111.576Z" fill="black"/>
        <path opacity="0.2" d="M169.643 108.527C167.969 108.97 166.364 109.369 164.828 109.723L165.552 112.153C167.073 111.808 168.653 111.416 170.3 110.958L169.643 108.527Z" fill="black"/>
        <path opacity="0.2" d="M154.82 111.316C152.788 111.502 150.961 111.582 149.348 111.589L149.62 114.132C150.284 114.132 150.948 114.132 151.612 114.086C152.701 114.039 153.864 113.96 155.099 113.84L154.82 111.316Z" fill="black"/>
    </g>
    <path d="M171.663 64.6301L161.854 65.0418C159.689 67.4326 150.153 67.3197 150.598 65.5199L140.696 65.9383C140.238 65.9448 139.793 66.0933 139.423 66.3633C139.053 66.6334 138.776 67.0116 138.63 67.4458C135.576 77.8324 141.632 106.136 141.632 106.136C138.006 111.695 150.412 110.393 163.548 108.68C176.683 106.966 170.594 103.228 170.594 103.228C169.737 89.7397 172.221 71.5168 172.931 66.0379C172.958 65.8588 172.944 65.6761 172.892 65.5027C172.84 65.3293 172.75 65.1697 172.629 65.0351C172.508 64.9006 172.358 64.7945 172.191 64.7245C172.024 64.6545 171.844 64.6222 171.663 64.6301Z" fill="#007BC3"/>
    <g opacity="0.7">
        <path opacity="0.7" d="M171.663 64.6301L161.854 65.0418C159.689 67.4326 150.153 67.3197 150.598 65.5199L140.696 65.9383C140.238 65.9448 139.793 66.0933 139.423 66.3633C139.053 66.6334 138.776 67.0116 138.63 67.4458C135.576 77.8324 141.632 106.136 141.632 106.136C138.006 111.695 150.412 110.393 163.548 108.68C176.683 106.966 170.594 103.228 170.594 103.228C169.737 89.7397 172.221 71.5168 172.931 66.0379C172.958 65.8588 172.944 65.6761 172.892 65.5027C172.84 65.3293 172.75 65.1697 172.629 65.0351C172.508 64.9006 172.358 64.7945 172.191 64.7245C172.024 64.6545 171.844 64.6222 171.663 64.6301Z" fill="white"/>
    </g>
    <path d="M152.535 40.2646C152.535 40.2646 146.618 40.776 147.116 43.4855C147.614 46.1951 152.575 43.7445 152.575 43.7445L152.535 40.2646Z" fill="#263238"/>
    <path d="M160.657 53.7588C159.654 57.0793 158.738 62.3921 160.113 65.6595C160.445 66.4431 159.84 67.8576 159.15 68.3557C156.732 70.255 153.936 72.0216 150.862 71.8223C146.917 71.5633 146.618 68.6081 147.541 67.0408C147.794 66.6224 148.444 65.7126 148.923 65.5864C152.754 64.7696 153.1 62.1796 152.681 59.2708L160.657 53.7588Z" fill="#FFBE9D"/>
    <path opacity="0.2" d="M157.417 56.0234L152.695 59.2576C152.784 59.9712 152.813 60.6909 152.782 61.4093C154.442 61.3429 156.693 60.1807 157.517 58.4474C158.041 57.3915 157.809 56.1961 157.417 56.0234Z" fill="black"/>
    <path d="M162.667 48.36C161.465 53.467 161.014 56.5085 157.959 58.7067C153.357 62.0272 147.4 58.5407 147.061 53.2013C146.756 48.3534 148.774 40.8491 154.174 39.667C156.022 39.2529 157.959 39.5897 159.559 40.6034C161.16 41.6171 162.292 43.2246 162.707 45.0727C162.947 46.157 162.933 47.2819 162.667 48.36Z" fill="#FFBE9D"/>
    <path d="M154.801 47.9619C154.589 48.3537 154.204 48.5729 153.945 48.4268C153.686 48.2807 153.646 47.849 153.865 47.4505C154.084 47.0521 154.463 46.8396 154.722 46.9857C154.981 47.1318 155.02 47.5701 154.801 47.9619Z" fill="#263238"/>
    <path d="M150.031 46.5801C149.811 46.9785 149.426 47.191 149.167 47.0516C148.908 46.9121 148.868 46.4672 149.088 46.0687C149.307 45.6703 149.685 45.4577 149.944 45.6038C150.203 45.7499 150.243 46.1683 150.031 46.5801Z" fill="#263238"/>
    <path d="M157.105 47.1575C157.058 47.1421 157.017 47.1141 156.985 47.0766C156.953 47.0391 156.933 46.9935 156.925 46.945C156.885 46.614 156.767 46.2974 156.579 46.0214C156.392 45.7453 156.142 45.5179 155.85 45.3578C155.817 45.3441 155.788 45.324 155.763 45.2988C155.739 45.2736 155.719 45.2438 155.706 45.211C155.693 45.1783 155.687 45.1433 155.688 45.108C155.688 45.0728 155.696 45.0381 155.71 45.0058C155.724 44.9742 155.744 44.9456 155.769 44.9218C155.793 44.8979 155.823 44.8792 155.855 44.8669C155.887 44.8545 155.921 44.8487 155.956 44.8497C155.99 44.8508 156.024 44.8587 156.055 44.873C156.427 45.0717 156.746 45.356 156.987 45.7024C157.227 46.0488 157.381 46.4475 157.437 46.8653C157.443 46.8998 157.441 46.935 157.433 46.969C157.425 47.003 157.411 47.0351 157.391 47.0635C157.37 47.0919 157.344 47.116 157.315 47.1344C157.285 47.1528 157.252 47.1652 157.218 47.1708L157.105 47.1575Z" fill="#263238"/>
    <path d="M149.028 43.8836C148.995 43.8724 148.964 43.8547 148.938 43.8316C148.912 43.8084 148.89 43.7803 148.875 43.7488C148.859 43.7173 148.85 43.6831 148.848 43.6481C148.846 43.6131 148.851 43.578 148.862 43.5449C148.882 43.4917 148.916 43.4455 148.962 43.4121C149.296 43.1551 149.687 42.9813 150.101 42.9051C150.516 42.8289 150.942 42.8524 151.346 42.9738C151.412 42.9978 151.466 43.0468 151.496 43.1103C151.525 43.1737 151.529 43.2464 151.505 43.3125C151.478 43.3766 151.426 43.4279 151.363 43.4562C151.299 43.4844 151.226 43.4877 151.16 43.4652C150.841 43.3699 150.503 43.3515 150.176 43.4115C149.848 43.4715 149.539 43.6082 149.274 43.8105C149.242 43.8415 149.203 43.8642 149.16 43.877C149.117 43.8897 149.072 43.8919 149.028 43.8836Z" fill="#263238"/>
    <path d="M150.922 47.4365C150.005 48.3194 148.97 49.0724 147.848 49.6745C148.01 49.9567 148.232 50.2003 148.498 50.3883C148.764 50.5763 149.068 50.7044 149.388 50.7637L150.922 47.4365Z" fill="#EB996E"/>
    <path d="M149.374 52.3848C149.374 52.3848 151.274 52.1258 156.487 52.4778C155.743 53.8525 154.494 54.9217 151.838 54.7291C149.182 54.5365 149.374 52.3848 149.374 52.3848Z" fill="#263238"/>
    <path d="M153.158 53.6997C152.138 53.572 151.103 53.7403 150.176 54.1845C150.656 54.5157 151.22 54.7024 151.803 54.7224C152.821 54.8494 153.855 54.6787 154.778 54.231C154.301 53.8992 153.738 53.7145 153.158 53.6997Z" fill="#EB996E"/>
    <path d="M149.621 52.3648C149.661 52.5483 149.752 52.7167 149.884 52.8506C150.015 52.9846 150.182 53.0786 150.365 53.1219C151.913 53.2226 153.467 53.2071 155.014 53.0754C155.255 53.0783 155.493 53.0238 155.709 52.9164C155.925 52.809 156.112 52.6518 156.255 52.4578C154.049 52.2741 151.832 52.243 149.621 52.3648Z" fill="white"/>
    <path d="M161.129 51.8665C160.4 50.0613 160.131 48.1034 160.346 46.1685C160.346 46.1685 158.393 43.7578 158.632 41.6924C158.632 41.6924 148.186 42.3565 148.106 37.761C148.027 33.1654 154.541 37.7145 154.541 37.7145C154.541 37.7145 154.588 31.286 159.19 36.7449C159.19 36.7449 164.675 37.5817 165.472 42.144C165.472 42.144 167.737 41.8053 167.299 45.8497C166.342 48.3063 164.929 50.5597 163.135 52.4907L161.129 51.8665Z" fill="#263238"/>
    <path d="M164.356 53.6062C163.473 54.5807 162.242 55.1697 160.929 55.2465C159.183 55.3195 158.698 53.6659 159.515 52.2248C160.245 50.8966 162.032 49.3227 163.625 49.9271C165.219 50.5314 165.432 52.3909 164.356 53.6062Z" fill="#FFBE9D"/>
    <path d="M166.387 46.6932C166.387 46.6932 168.153 43.9239 168.797 44.8603C169.442 45.7967 166.387 46.6932 166.387 46.6932Z" fill="#263238"/>
    <path d="M149.678 65.5473C149.359 66.8755 148.895 69.9437 150.807 71.5774C150.807 71.5774 157.601 68.0178 159.998 64.777C160.057 64.6933 160.132 64.6223 160.219 64.5682C160.305 64.514 160.402 64.4778 160.503 64.4617C160.604 64.4456 160.707 64.4499 160.806 64.4744C160.906 64.4989 160.999 64.5431 161.081 64.6043L161.665 65.0559C161.665 65.0559 162.196 68.4694 157.282 74.1674C157.232 74.2299 157.165 74.2776 157.089 74.3053C157.014 74.333 156.932 74.3397 156.853 74.3247C156.774 74.3097 156.701 74.2736 156.641 74.2202C156.58 74.1667 156.536 74.098 156.512 74.0213C156.133 72.8259 154.871 70.9266 150.761 72.4075C150.761 72.4075 147.985 71.491 146.59 73.0251C146.529 73.0941 146.448 73.1423 146.358 73.1631C146.268 73.1839 146.174 73.1763 146.089 73.1413C146.003 73.1063 145.931 73.0456 145.882 72.9677C145.832 72.8898 145.808 72.7985 145.813 72.7064C145.913 70.1462 146.72 67.6637 148.144 65.5341L149.207 65.1356C149.267 65.1117 149.332 65.1049 149.396 65.1158C149.46 65.1268 149.519 65.1551 149.568 65.1976C149.617 65.2402 149.653 65.2953 149.672 65.357C149.692 65.4187 149.694 65.4846 149.678 65.5473Z" fill="#007BC3"/>
    <path opacity="0.1" d="M143.902 106.183C143.902 106.183 153.704 107.445 161.574 105.061L143.902 106.183Z" fill="black"/>
    <path opacity="0.1" d="M169.097 73.0908C169.097 73.0908 168.188 78.4036 170.817 85.9146C171.09 82.0163 171.448 78.2841 171.807 75.0433L169.097 73.0908Z" fill="black"/>
    <path d="M172.796 65.1484C172.796 65.1484 166.488 69.3987 169.416 77.0026C172.345 84.6066 182.585 107.93 182.585 107.93L187.792 106.602L181.47 85.3969L172.796 65.1152" fill="#007BC3"/>
    <path opacity="0.7" d="M172.796 65.1484C172.796 65.1484 166.488 69.3987 169.416 77.0026C172.345 84.6066 182.585 107.93 182.585 107.93L187.792 106.602L181.47 85.3969L172.796 65.1152" fill="white"/>
</svg>
