<svg width="30" height="30" viewBox="0 0 30 30" xmlns="http://www.w3.org/2000/svg">
    <path d="M17.8145 2.8125C12.6472 2.8125 8.43945 7.02026 8.43945 12.1875C8.43945 14.4324 9.22681 16.4905 10.5488 18.1055L3.07812 25.5762L4.42578 26.9238L11.8965 19.4531C13.5115 20.7751 15.5696 21.5625 17.8145 21.5625C22.9817 21.5625 27.1895 17.3547 27.1895 12.1875C27.1895 7.02026 22.9817 2.8125 17.8145 2.8125ZM17.8145 4.6875C21.9673 4.6875 25.3145 8.03467 25.3145 12.1875C25.3145 16.3403 21.9673 19.6875 17.8145 19.6875C13.6616 19.6875 10.3145 16.3403 10.3145 12.1875C10.3145 8.03467 13.6616 4.6875 17.8145 4.6875Z"/>
</svg>
