<svg width="25" height="25" viewBox="0 0 25 25" xmlns="http://www.w3.org/2000/svg">
    <path d="M24.786 18.0851C24.786 18.0226 24.7339 17.9705 24.7027 17.9184C24.0226 16.84 23.1833 15.8707 22.2131 15.0434C21.661 14.5122 21.3069 14.158 21.1714 14.0017C21.0517 13.8597 20.9722 13.6882 20.941 13.505C20.9099 13.3219 20.9283 13.1337 20.9944 12.9601C21.3193 12.3527 21.7105 11.7832 22.161 11.2622L23.0048 10.158C24.4319 8.06425 25.0881 6.79342 24.9214 6.23092L24.8069 6.08508C24.6997 5.96887 24.5566 5.89187 24.4006 5.86633C24.1257 5.81021 23.8422 5.81021 23.5673 5.86633H19.8277C19.7429 5.8399 19.6521 5.8399 19.5673 5.86633H19.3902H19.3277H19.2756C19.2193 5.90245 19.17 5.9483 19.1298 6.00175C19.0739 6.06945 19.0314 6.14725 19.0048 6.23092C18.6285 7.28662 18.1687 8.31069 17.6298 9.29342C17.3069 9.83508 17.0152 10.3351 16.7444 10.6892C16.5439 10.9996 16.3174 11.2924 16.0673 11.5642C15.9154 11.7255 15.7518 11.8752 15.5777 12.0122C15.4856 12.1024 15.3628 12.1546 15.2339 12.158L15.0152 12.1059C14.8923 12.0246 14.792 11.9135 14.7235 11.783C14.6415 11.6243 14.5919 11.4507 14.5777 11.2726C14.5777 11.0747 14.5777 10.8976 14.5256 10.7517C14.4735 10.6059 14.5256 10.3976 14.5256 10.1267C14.5256 9.85592 14.5256 9.67883 14.5256 9.57467C14.5256 9.25175 14.5256 8.88717 14.5256 8.533C14.5256 8.17883 14.5256 7.8455 14.5256 7.61633C14.5256 7.38717 14.5256 7.158 14.5256 6.89758C14.5456 6.70365 14.5456 6.50818 14.5256 6.31425C14.4963 6.17071 14.4509 6.03094 14.3902 5.89758C14.332 5.76946 14.2379 5.66093 14.1194 5.58508C13.9845 5.50201 13.8366 5.44215 13.6819 5.408C13.1064 5.28849 12.5195 5.2326 11.9319 5.24133C10.8798 5.14801 9.8196 5.25403 8.80686 5.55383C8.61809 5.65073 8.44863 5.78136 8.30686 5.93925C8.14714 6.12675 8.12631 6.23092 8.24436 6.25175C8.45745 6.26339 8.66574 6.31945 8.85589 6.41631C9.04604 6.51318 9.21384 6.64873 9.34853 6.81425L9.43186 6.9705C9.51917 7.15886 9.57881 7.35884 9.60895 7.56425C9.67444 7.87662 9.71623 8.1935 9.73395 8.51217C9.77588 9.0565 9.77588 9.60325 9.73395 10.1476C9.73395 10.5955 9.65061 10.9497 9.60895 11.1892C9.57729 11.401 9.51775 11.6077 9.43186 11.8038L9.29645 12.0642V12.1267C9.18355 12.1715 9.06368 12.1962 8.94228 12.1997C8.77751 12.1836 8.62141 12.1183 8.49436 12.0122C8.3017 11.8629 8.12381 11.6954 7.96311 11.5122C7.72688 11.2317 7.51434 10.932 7.3277 10.6163C7.09853 10.2413 6.84853 9.783 6.59853 9.26217L6.3902 8.88717C6.2652 8.64758 6.0777 8.29342 5.85895 7.8455C5.6402 7.39758 5.43186 6.93925 5.25478 6.50175C5.20291 6.33041 5.09225 6.18286 4.94228 6.08508H4.87978C4.8161 6.03987 4.74583 6.00473 4.67145 5.98092C4.57445 5.93881 4.47316 5.90737 4.36936 5.88717L0.754781 5.85592C0.622198 5.8356 0.486732 5.84567 0.358612 5.88537C0.230491 5.92507 0.113064 5.99336 0.0151977 6.08508V6.158C-0.0050659 6.22597 -0.0050659 6.29837 0.0151977 6.36633C0.017218 6.489 0.0456405 6.6098 0.098531 6.7205C0.608948 7.93925 1.1402 9.12675 1.79645 10.2622C2.4527 11.3976 2.93186 12.3455 3.3902 13.0017C3.84853 13.658 4.29645 14.3559 4.7652 14.9705C5.23395 15.5851 5.54645 16.0122 5.69228 16.158C5.80663 16.2931 5.92834 16.4217 6.05686 16.5434L6.37978 16.8559C6.66526 17.1295 6.97175 17.3803 7.29645 17.6059C7.7295 17.9166 8.17799 18.2051 8.6402 18.4705C9.1783 18.7709 9.75232 19.0019 10.3485 19.158C10.9683 19.3315 11.6118 19.4053 12.2548 19.3767H13.7444C14.0053 19.3704 14.2544 19.2663 14.4423 19.0851L14.4944 19.0226C14.5345 18.9465 14.566 18.8661 14.5881 18.783C14.6047 18.662 14.6047 18.5394 14.5881 18.4184C14.5741 18.0691 14.6021 17.7194 14.6714 17.3767C14.7199 17.1459 14.7969 16.9219 14.9006 16.7101C14.9748 16.571 15.0657 16.4416 15.1714 16.3247C15.2391 16.2522 15.3162 16.1891 15.4006 16.1372H15.5048C15.6341 16.1109 15.7679 16.1161 15.8948 16.1523C16.0217 16.1886 16.138 16.2548 16.2339 16.3455C16.5332 16.559 16.8029 16.8112 17.036 17.0955C17.2756 17.3976 17.5777 17.7309 17.9214 18.1372C18.2005 18.4427 18.5074 18.7217 18.8381 18.9705L19.0985 19.1267C19.311 19.2495 19.5387 19.3441 19.7756 19.408C20.008 19.4963 20.2596 19.5215 20.5048 19.4809H23.8277C24.0947 19.4931 24.3604 19.4357 24.5985 19.3142C24.6737 19.2804 24.7411 19.2315 24.7966 19.1706C24.8521 19.1096 24.8946 19.038 24.9214 18.9601C24.9585 18.8131 24.9585 18.6592 24.9214 18.5122C24.8983 18.3638 24.8526 18.2197 24.786 18.0851Z"/>
</svg>
