<svg width="50" height="50" viewBox="0 0 50 50" xmlns="http://www.w3.org/2000/svg">
    <path d="M25 12.8125C18.28 12.8125 12.8125 18.28 12.8125 25C12.8125 31.72 18.28 37.1875 25 37.1875C31.72 37.1875 37.1875 31.72 37.1875 25C37.1875 18.28 31.72 12.8125 25 12.8125ZM25 14.6875C30.7056 14.6875 35.3125 19.2944 35.3125 25C35.3125 30.7056 30.7056 35.3125 25 35.3125C19.2944 35.3125 14.6875 30.7056 14.6875 25C14.6875 19.2944 19.2944 14.6875 25 14.6875ZM24.0625 19.375V21.25H25.9375V19.375H24.0625ZM24.0625 23.125V30.625H25.9375V23.125H24.0625Z"/>
</svg>
