<svg width="25" height="25" viewBox="0 0 25 25" xmlns="http://www.w3.org/2000/svg">
    <path d="M12.5 2.25C15.8333 2.25 16.2292 2.25 17.5521 2.32292C20.9375 2.47917 22.5208 4.08333 22.6771 7.44792C22.7396 8.77083 22.75 9.16667 22.75 12.5C22.75 15.8333 22.75 16.2396 22.6771 17.5521C22.5208 20.9167 20.9479 22.5208 17.5521 22.6771C16.2292 22.7396 15.8437 22.75 12.5 22.75C9.15625 22.75 8.77083 22.75 7.44792 22.6771C4.05208 22.5208 2.47917 20.9062 2.32292 17.5521C2.26042 16.2292 2.25 15.8437 2.25 12.5C2.25 9.15625 2.25 8.77083 2.32292 7.44792C2.47917 4.08333 4.0625 2.47917 7.44792 2.32292C8.77083 2.27083 9.16667 2.25 12.5 2.25ZM12.5 0C9.10417 0 8.67708 0 7.34375 0.0729167C2.8125 0.28125 0.28125 2.80208 0.0520833 7.36458C0 8.67708 0 9.10417 0 12.5C0 15.8958 0 16.3229 0.0729167 17.7083C0.28125 22.25 2.80208 24.7708 7.36458 25C8.67708 25 9.10417 25 12.5 25C15.8958 25 16.3229 25 17.6562 24.9271C22.1875 24.7188 24.7188 22.1979 24.9479 17.6354C25 16.3229 25 15.8958 25 12.5C25 9.10417 25 8.67708 24.9271 7.34375C24.7188 2.8125 22.1979 0.28125 17.6354 0.0520833C16.3229 0 15.8958 0 12.5 0ZM12.5 6.08333C11.2309 6.08333 9.99031 6.45966 8.93509 7.16474C7.87988 7.86981 7.05744 8.87195 6.57177 10.0444C6.08611 11.2169 5.95904 12.5071 6.20663 13.7518C6.45422 14.9965 7.06534 16.1399 7.96273 17.0373C8.86012 17.9347 10.0035 18.5458 11.2482 18.7934C12.4929 19.041 13.7831 18.9139 14.9556 18.4282C16.128 17.9426 17.1302 17.1201 17.8353 16.0649C18.5403 15.0097 18.9167 13.7691 18.9167 12.5C18.9167 10.7982 18.2406 9.16609 17.0373 7.96273C15.8339 6.75937 14.2018 6.08333 12.5 6.08333ZM12.5 16.6667C11.6759 16.6667 10.8703 16.4223 10.1851 15.9645C9.49992 15.5066 8.96587 14.8559 8.6505 14.0945C8.33514 13.3332 8.25262 12.4954 8.41339 11.6871C8.57417 10.8789 8.971 10.1364 9.55372 9.55372C10.1364 8.971 10.8789 8.57417 11.6871 8.41339C12.4954 8.25262 13.3332 8.33514 14.0945 8.6505C14.8559 8.96587 15.5066 9.49992 15.9645 10.1851C16.4223 10.8703 16.6667 11.6759 16.6667 12.5C16.6667 13.6051 16.2277 14.6649 15.4463 15.4463C14.6649 16.2277 13.6051 16.6667 12.5 16.6667ZM19.1771 4.32292C18.88 4.32085 18.5889 4.40707 18.3409 4.57063C18.0929 4.7342 17.899 4.96774 17.7839 5.24164C17.6687 5.51554 17.6375 5.81746 17.6942 6.10911C17.7509 6.40077 17.893 6.66902 18.1023 6.87984C18.3117 7.09066 18.5789 7.23456 18.8702 7.29329C19.1614 7.35201 19.4636 7.32292 19.7383 7.2097C20.013 7.09649 20.2478 6.90424 20.4131 6.65734C20.5784 6.41045 20.6667 6.12003 20.6667 5.82292C20.6667 5.42689 20.5101 5.04693 20.231 4.76592C19.952 4.48492 19.5731 4.32567 19.1771 4.32292Z"/>
</svg>
