<svg width="54" height="61" viewBox="0 0 54 61" fill="none" xmlns="http://www.w3.org/2000/svg">
    <path d="M45.9801 59.4506C46.6245 58.4598 47.085 57.359 47.3393 56.2019C47.8264 54.3316 48.0068 50.5242 48.067 48.2471C48.067 47.233 48.067 46.5165 48.067 46.4254C48.067 46.4254 48.1512 47.4152 48.1752 48.9818C48.2059 50.8589 48.1316 52.7362 47.9527 54.6049C47.6821 57.3981 46.6777 58.8555 45.95 59.4627L45.9801 59.4506ZM44.5066 59.4627C45.1674 58.3482 45.6294 57.1254 45.8718 55.8497C46.5755 52.8135 46.6477 45.2109 46.6236 44.8405C46.814 47.9055 46.7779 50.9806 46.5153 54.0401C46.2387 57.1917 45.1802 58.8494 44.5066 59.4627ZM42.6483 59.4627C43.5206 58.3988 44.105 57.1246 44.3443 55.7647C44.9457 52.8621 45.3306 44.3851 45.3847 42.9641C45.3847 42.9641 45.499 47.6581 45.2163 51.6294C44.7713 57.9082 43.5143 58.9162 42.6723 59.487L42.6483 59.4627ZM42.1311 57.4103C42.0709 57.3131 38.8354 47.0873 36.7184 39.2904C38.6429 44.8101 40.0201 49.2976 42.3416 56.7241C42.2849 56.959 42.2084 57.1885 42.113 57.4103H42.1311ZM40.0262 56.9792C39.2143 54.9449 38.8955 53.5968 37.5183 49.1458C35.9065 43.9539 34.3549 37.3047 34.3549 37.3047C34.3549 37.3047 36.7605 44.9984 38.3542 50.251C39.5571 54.1859 40.8621 57.9932 41.3192 58.4244C41.253 58.4972 40.8621 59.0984 40.0201 56.9913L40.0262 56.9792ZM38.8474 58.3333C36.0388 53.0564 32.4364 37.08 31.9733 35.3372C31.9733 35.3372 37.831 56.214 39.4909 58.558C39.8517 59.0681 40.0923 59.2381 40.399 59.1045C40.399 59.1045 39.6533 59.8453 38.8534 58.3333H38.8474ZM27.9198 59.4081H27.8837C27.4424 59.4029 27.0168 59.2417 26.6809 58.9527C29.0144 56.8577 31.7207 52.6253 33.8978 48.6722C34.1023 49.4373 34.3007 50.1781 34.4992 50.8764C31.4441 56.5298 29.2429 59.4081 27.9198 59.4081ZM26.1156 58.0479C25.9321 57.3805 25.875 56.6842 25.9472 55.9954C28.1002 53.0078 30.4397 48.8057 32.7611 44.4579C33.0318 45.4477 33.2784 46.3829 33.5009 47.2269C30.8366 52.1881 28.0882 56.1958 26.1096 58.0722L26.1156 58.0479ZM24.1309 59.2016H24.0648C23.954 59.1861 23.8481 59.1452 23.7553 59.0821C23.6626 59.0189 23.5853 58.9352 23.5295 58.8373C24.1044 58.2687 24.639 57.66 25.1293 57.0156C25.1497 57.5446 25.2595 58.0663 25.454 58.558C25.0856 58.8933 24.6234 59.1054 24.1309 59.1652V59.2016ZM22.886 55.4489C24.1737 53.7905 25.378 52.0678 26.4945 50.2874C25.9231 51.8376 25.5021 53.4401 25.2375 55.0724C24.5968 56.0081 23.8914 56.8969 23.1266 57.7321C22.956 56.9836 22.8772 56.2168 22.892 55.4489H22.886ZM21.8937 54.1677C21.1386 55.1834 20.3147 56.1451 19.4279 57.046C19.2861 56.4072 19.2015 55.7569 19.1753 55.1028C20.3781 53.4815 21.581 51.5687 22.7838 49.498C22.3363 51.0226 22.0303 52.5858 21.8696 54.1677H21.8937ZM20.8232 59.2016H20.727C20.5618 59.169 20.4067 59.0968 20.2749 58.9911C20.143 58.8855 20.0382 58.7494 19.9692 58.5944C20.6412 57.9946 21.2721 57.3494 21.8576 56.6634C21.9081 57.2498 22.0169 57.8296 22.1824 58.394C22.1824 58.4426 22.2124 58.479 22.2305 58.5276C21.8436 58.8936 21.35 59.1237 20.8232 59.1834V59.2016ZM15.1098 52.2549C15.1699 51.6051 15.1399 49.5405 16.6795 45.0834C17.9364 41.5311 23.5055 25.5607 26.4824 27.9047C26.8819 28.2148 27.2153 28.603 27.4627 29.0463C26.7952 30.2182 25.887 31.5967 24.5158 34.3899C24.173 35.0883 23.6378 36.1692 23.2108 37.0436C21.4066 40.772 18.165 47.2877 15.1279 52.2913L15.1098 52.2549ZM18.1349 53.8944C17.3977 54.9653 16.5836 55.9801 15.6992 56.9306C15.5221 56.2365 15.4113 55.5268 15.3684 54.8113C16.493 53.1596 17.6598 51.2043 18.8446 49.0547C18.4526 50.6367 18.2149 52.2535 18.1349 53.8822V53.8944ZM16.7937 58.643C16.6316 58.6234 16.4809 58.5484 16.3668 58.4305C17.0309 57.7868 17.6517 57.0991 18.2251 56.3719C18.2921 56.8811 18.3966 57.3844 18.5378 57.8779C18.0664 58.3361 17.4473 58.6077 16.7937 58.643ZM14.328 45.1988C13.3697 47.637 12.2444 50.0049 10.9601 52.2852C11.4773 41.7071 19.9812 25.5304 24.7925 18.4804C27.7454 14.1629 30.4457 11.9161 32.7792 11.4728C36.1711 10.8292 37.2236 14.0415 37.6867 15.0312C37.3724 14.7508 36.9909 14.5582 36.5801 14.4726C35.8714 14.3826 35.1521 14.4342 34.4631 14.6244C32.0034 15.2863 29.4053 17.5999 26.6929 21.5347C25.5968 23.0046 24.6213 24.5622 23.7761 26.1923C21.0998 28.3662 17.6057 36.7946 15.3564 42.6969C15.0497 43.4864 14.4964 44.9012 14.3821 45.1866L14.328 45.1988ZM13.0049 58.6551H12.9026C12.7382 58.6391 12.5816 58.5759 12.4516 58.473C12.9974 57.9219 13.5095 57.3379 13.9852 56.7241C14.0533 57.0682 14.1355 57.4042 14.2318 57.7321C14.2738 57.8718 14.3159 57.9993 14.3641 58.1208C13.9723 58.4339 13.497 58.622 12.9989 58.6612L13.0049 58.6551ZM11.5374 56.8395C11.4061 56.4052 11.3016 55.9631 11.2247 55.5157C12.1028 54.2102 13.0289 52.6799 13.919 50.9979C13.7682 52.1287 13.7079 53.2699 13.7386 54.4105C13.1017 55.3608 12.3983 56.2639 11.6337 57.1127C11.5976 57.0217 11.5675 56.9306 11.5435 56.8395H11.5374ZM9.18594 58.7037H9.07768C8.97383 58.6923 8.87347 58.6593 8.78299 58.6065C9.20944 58.1683 9.61102 57.7061 9.98581 57.222C9.98581 57.2585 9.98581 57.2949 9.98581 57.3314C10.0844 57.6424 10.2029 57.9467 10.3406 58.2422C9.99398 58.5141 9.57559 58.6768 9.13782 58.7098L9.18594 58.7037ZM7.5501 56.4751C4.47691 45.3506 15.9698 22.8646 21.7133 14.3694C24.7925 9.8333 27.7274 7.39221 30.1991 6.8882C33.8497 6.13523 35.3231 9.92439 35.6118 10.4041C35.0946 10.0798 34.5142 9.87188 33.9102 9.79434C33.3062 9.7168 32.6928 9.77151 32.1116 9.95475C29.4354 10.6956 26.5005 13.1063 23.4513 17.5634C19.2415 23.7633 8.4462 42.6362 9.4265 54.368C8.96873 55.2683 8.39214 56.1018 7.71248 56.8456C7.65392 56.7293 7.60756 56.6072 7.57416 56.4812L7.5501 56.4751ZM2.90122 56.7545C-1.91005 48.1803 12.1509 19.3669 17.8582 11.1206C20.7089 7.00358 23.3491 4.37424 25.7547 3.263C26.6099 2.85529 27.5398 2.63194 28.4851 2.60718C30.6923 2.60718 31.9192 3.82166 33.11 5.64337C32.7311 5.43691 27.8176 2.22462 20.2037 13.1549C20.1857 13.1488 1.74651 41.7982 5.90826 56.9792C6.01445 57.3211 6.14717 57.6541 6.30519 57.975C6.08868 58.2847 4.16418 59.0741 2.87115 56.7606L2.90122 56.7545ZM39.3466 19.5855C39.2203 19.5309 39.0038 19.2637 37.837 19.3608C35.3532 19.5734 32.701 21.6926 29.9225 25.6882L28.9663 27.091C28.5997 26.5771 28.1172 26.1588 27.5588 25.8705C27.0003 25.5822 26.3819 25.4323 25.7547 25.4332C26.4464 24.2977 27.2703 23.1136 27.8536 22.2634C30.5961 18.28 33.2122 16.3247 35.4194 16.0696C38.1197 15.7599 38.9677 18.5471 39.3405 19.5794L39.3466 19.5855ZM31.8049 40.9967C31.9913 41.6464 32.1657 42.2901 32.3402 42.9216C30.9268 45.6056 28.6355 49.9109 26.3682 53.4268C27.0558 50.8733 27.9654 48.3861 29.0865 45.9942C30.3555 43.7718 31.3358 41.9075 31.8049 40.9906V40.9967ZM19.3377 52.1213C19.7799 49.2785 20.5405 46.4957 21.605 43.8264C23.0304 40.353 27.8356 31.3477 28.3829 30.5036C28.7498 31.372 29.1347 32.4043 29.5196 33.5398C29.0324 34.3717 28.5332 35.3615 27.998 36.3817L27.9559 36.4606C27.7875 36.7885 27.559 37.25 27.2763 37.8148C24.887 42.7243 22.2369 47.5001 19.3377 52.1213ZM26.0855 43.6199C26.9816 41.9258 27.8536 40.2073 28.6956 38.5313C28.9723 37.9726 29.8984 36.1024 30.1991 35.5984C30.5239 36.6307 30.8487 37.7055 31.1674 38.7863C30.9268 39.2236 30.6803 39.7033 30.4096 40.2194C28.2623 44.4186 25.8518 48.4751 23.1927 52.3642C23.845 49.3535 24.8148 46.422 26.0855 43.6199ZM39.8878 21.3587C40.6877 23.9758 40.5795 23.6115 40.6877 24.0426C40.6433 24.0168 40.5942 24.0002 40.5434 23.9941H40.4171C37.9212 23.8422 35.0826 25.8643 31.9673 30.3943C31.4862 29.8539 30.7645 29.0584 29.9225 28.1354C30.5079 27.0747 31.1714 26.0598 31.9071 25.0992C34.409 21.9598 35.9787 20.8486 38.3783 20.7028C38.4264 20.7028 39.6653 20.6603 39.8878 21.3951V21.3587ZM33.3626 30.2972C35.9967 26.5505 38.4264 24.7956 40.5795 25.0749C40.6414 25.0776 40.7016 25.0963 40.7542 25.1293C40.8069 25.1623 40.8503 25.2084 40.8802 25.2632C41.0125 25.6093 41.656 28.2204 41.662 28.4633C41.5597 28.4633 41.3613 28.4633 41.259 28.4633C39.3225 28.4633 37.398 29.866 35.3171 32.7868L34.824 33.5155L32.7431 31.2688L33.3626 30.2972ZM35.4314 34.1471C35.6126 33.8173 35.8134 33.4989 36.0328 33.1937C37.9212 30.5644 39.6413 29.2467 41.2771 29.2406C41.2771 29.2406 41.8244 29.2406 41.8785 29.3924C42.7565 32.8415 43.6827 37.9301 43.7729 41.2517C43.7729 41.4096 43.7729 41.5432 43.7729 41.6646C43.7729 41.6646 43.7248 42.9277 43.7188 43.0127L35.4314 34.1471ZM42.1912 43.8143C42.7505 44.8162 43.7188 47.2998 43.6346 48.1499C43.0332 46.3282 42.7205 45.0773 42.1912 43.8143ZM43.1415 54.2102C43.0873 54.5016 43.0272 54.7749 42.967 55.0421C42.2754 52.9471 41.3493 49.9474 40.5133 47.0265C40.0442 45.3931 39.3105 42.5391 38.9316 41.1667C40.9884 47.2391 42.4198 52.097 43.1415 54.2102ZM43.382 51.6112C42.8347 49.9352 42.3656 48.3746 41.8184 46.6318C41.3132 45.0227 41.0485 43.8689 40.6636 42.5451C41.9807 46.1886 42.4198 47.5427 43.4061 50.5121C43.426 50.8761 43.426 51.241 43.4061 51.6051L43.382 51.6112ZM49.5765 47.6581C49.7654 50.0841 49.7473 52.522 49.5224 54.9449C49.2878 57.4407 48.3196 58.7401 47.7182 59.2988C48.2994 58.4084 48.7094 57.4155 48.927 56.3719C49.5284 53.943 49.5705 47.9495 49.5284 47.6581H49.5765ZM51.0139 48.7997C51.2264 50.9672 51.2103 53.1513 50.9658 55.3153C50.7132 57.5864 49.763 58.8312 49.1194 59.3413C49.6945 58.5197 50.1183 57.6003 50.3704 56.627C51.0139 54.4288 51.0139 49.0851 51.0139 48.7997ZM52.3671 49.8866C52.5887 51.8335 52.5887 53.7996 52.3671 55.7465C52.1325 57.7503 51.2725 58.892 50.653 59.3413C51.1766 58.6058 51.5694 57.7839 51.8138 56.9124C52.4152 54.9753 52.4152 50.1356 52.3731 49.8988L52.3671 49.8866ZM53.8886 52.6921C54.2615 38.8531 43.7789 18.6868 39.0338 10.3373C35.1367 4.02205 33.0438 1.02837 29.1347 0.554724C28.4562 0.473397 27.7698 0.489753 27.0959 0.603303C25.8073 0.84254 24.5798 1.34239 23.4874 2.07282C21.1419 3.57269 18.6762 6.15952 16.1322 9.88188C11.0022 17.2841 -3.71427 46.6561 0.874472 57.2038C2.35394 60.5983 5.14447 60.7683 7.43584 59.736C7.85623 60.0937 8.37879 60.3064 8.92733 60.3432C9.75998 60.3583 10.5713 60.0766 11.2187 59.5478C11.6307 59.9753 12.1817 60.2383 12.7703 60.2886C13.6226 60.2926 14.4512 60.0058 15.1218 59.4749C15.5052 59.9301 16.0485 60.2175 16.6374 60.2765C17.5571 60.2633 18.4428 59.9236 19.1392 59.317C19.2955 59.5864 19.5115 59.8154 19.7703 59.9861C20.0291 60.1569 20.3237 60.2645 20.6307 60.3007C21.4064 60.3161 22.1604 60.0414 22.7477 59.5295C22.8918 59.7387 23.0795 59.9135 23.2977 60.0415C23.5159 60.1695 23.7593 60.2476 24.0107 60.2704H24.1369C24.842 60.2081 25.5104 59.9258 26.0494 59.4627C26.5363 59.9313 27.1811 60.196 27.8536 60.2036C29.7842 60.3007 32.3702 56.4387 34.7879 51.9937C35.2919 53.8348 35.8942 55.647 36.5921 57.4224C37.38 59.3717 38.3963 60.07 39.5029 60.2825C40.2366 60.489 47.6159 60.5983 50.3283 60.3979C50.6734 60.3784 51.0112 60.2888 51.3212 60.1344C51.6312 59.9799 51.9072 59.7639 52.1325 59.4992C53.0045 58.4244 53.9969 56.5905 53.8465 52.686" fill="white"/>
</svg>
