<svg width="33" height="48" viewBox="0 0 33 48" fill="none" xmlns="http://www.w3.org/2000/svg">
    <path d="M2.17076 46.8702C1.5089 47.343 0.589416 46.8699 0.589416 46.0565L0.589414 -7.62939e-06L32.8631 -9.04012e-06L32.8631 46.0565C32.8631 46.8699 31.9436 47.343 31.2818 46.8702L17.8889 37.3013C17.1935 36.8044 16.2591 36.8044 15.5636 37.3013L2.17076 46.8702Z" fill="#FF1A00"/>
    <path d="M5.32993 28L7.71693 24.095L5.31893 20.135H7.50793L8.36593 21.752L8.84993 22.764H8.87193C9.01126 22.4267 9.1726 22.0893 9.35593 21.752L10.2249 20.135H12.4139L10.0049 24.095L12.4029 28H10.2579L9.35593 26.35L8.87193 25.371H8.84993C8.7106 25.6937 8.54926 26.02 8.36593 26.35L7.46393 28H5.32993ZM13.5379 28V20.135H15.4629V23.809L15.3749 25.151H15.3969C15.6316 24.601 15.8516 24.1537 16.0569 23.809L18.2349 20.135H20.1819V28H18.2569V24.337L18.3449 22.995H18.3229C18.0882 23.545 17.8682 23.9923 17.6629 24.337L15.4739 28H13.5379ZM23.7559 28V21.785H21.3689V20.135H28.0679V21.785H25.6809V28H23.7559Z" fill="white"/>
</svg>
