<svg width="20" height="19" viewBox="0 0 20 19" fill="none" xmlns="http://www.w3.org/2000/svg">
    <path d="M15.7496 12.5312V14.5635C15.7503 14.7521 15.7116 14.9389 15.6359 15.1117C15.5602 15.2846 15.4491 15.4398 15.3098 15.5673C15.1705 15.6949 15.006 15.792 14.827 15.8524C14.6479 15.9129 14.4581 15.9353 14.2698 15.9183C12.1811 15.6918 10.1748 14.9795 8.41201 13.8386C6.77197 12.7985 5.3815 11.4108 4.33935 9.77403C3.19221 8.00675 2.47831 5.99463 2.25551 3.90069C2.23855 3.71336 2.26085 3.52456 2.32101 3.3463C2.38117 3.16804 2.47786 3.00424 2.60492 2.86532C2.73198 2.7264 2.88664 2.61541 3.05904 2.53941C3.23144 2.46341 3.41781 2.42407 3.60627 2.42389H5.6426C5.97202 2.42066 6.29137 2.53708 6.54114 2.75145C6.79091 2.96583 6.95405 3.26353 7.00016 3.58908C7.0861 4.23946 7.2455 4.87804 7.4753 5.49266C7.56662 5.73513 7.58639 5.99864 7.53225 6.25198C7.47812 6.50531 7.35235 6.73785 7.16985 6.92204L6.3078 7.78238C7.27408 9.47836 8.68111 10.8826 10.3805 11.847L11.2425 10.9866C11.4271 10.8045 11.6601 10.679 11.9139 10.6249C12.1677 10.5709 12.4318 10.5906 12.6747 10.6818C13.2906 10.9111 13.9304 11.0702 14.5821 11.156C14.9118 11.2024 15.2129 11.3682 15.4282 11.6217C15.6435 11.8753 15.7578 12.1989 15.7496 12.5312Z" stroke="white" stroke-opacity="0.6" stroke-width="2" stroke-linecap="round" stroke-linejoin="round"/>
</svg>
