<svg width="20" height="19" viewBox="0 0 20 19" fill="none" xmlns="http://www.w3.org/2000/svg">
    <g clip-path="url(#clip0)">
        <path d="M7.64323 8.72102C7.57773 9.17543 7.61071 9.6386 7.73995 10.0791C7.86919 10.5197 8.09167 10.9273 8.39228 11.2743C8.69289 11.6212 9.06462 11.8995 9.48224 12.0902C9.89986 12.2809 10.3536 12.3796 10.8127 12.3795H13.5294C14.3688 12.3649 15.1688 12.0212 15.7573 11.4225C16.3457 10.8237 16.6754 10.0178 16.6754 9.17833C16.6754 8.33884 16.3457 7.53293 15.7573 6.93418C15.1688 6.33543 14.3688 5.99176 13.5294 5.97717L11.9764 5.97264" stroke="white" stroke-opacity="0.6" stroke-width="2" stroke-linecap="round" stroke-linejoin="round"/>
        <path d="M10.3593 9.62625C10.4248 9.17184 10.3918 8.70867 10.2626 8.26813C10.1334 7.8276 9.91089 7.42001 9.61028 7.07302C9.30967 6.72602 8.93794 6.44774 8.52032 6.25704C8.1027 6.06634 7.64895 5.96769 7.18985 5.96777L4.47316 5.96777C3.63379 5.98236 2.83374 6.32604 2.24531 6.92479C1.65687 7.52354 1.32715 8.32944 1.32715 9.16894C1.32715 10.0084 1.65687 10.8143 2.24531 11.4131C2.83374 12.0118 3.63379 12.3555 4.47316 12.3701L6.02167 12.3701" stroke="white" stroke-opacity="0.6" stroke-width="2" stroke-linecap="round" stroke-linejoin="round"/>
    </g>
    <defs>
        <clipPath id="clip0">
            <rect width="18.4932" height="18" fill="white" transform="translate(0.628906 0.173828)"/>
        </clipPath>
    </defs>
</svg>
