<svg width="300" height="543" viewBox="0 0 300 543" fill="none" xmlns="http://www.w3.org/2000/svg"><path d="M-76.2377 492.124C-76.2377 492.124 29.2574 579.163 106.792 420.375C159.033 313.38 131.138 243.054 175.925 144.496C236.075 12.1462 381.74 58.8727 381.74 58.8727" stroke="white" stroke-opacity="0.15" stroke-width="1.34" stroke-miterlimit="10"/><path d="M-71.7747 501.264C-71.7747 501.264 34.9455 569.724 100.156 409.332C145.055 298.909 133.147 228.722 183.322 142.112C249.772 27.4064 384.393 71.7795 384.393 71.7795" stroke="white" stroke-opacity="0.15" stroke-width="1.34" stroke-miterlimit="10"/><path d="M-67.3158 510.427C-67.3158 510.427 40.441 560.058 93.5294 398.301C130.937 284.299 134.99 214.362 190.793 139.746C263.365 42.7208 387.115 84.7835 387.115 84.7835" stroke="white" stroke-opacity="0.15" stroke-width="1.34" stroke-miterlimit="10"/><path d="M-62.8652 519.575C-62.8652 519.575 45.6797 550.229 86.9012 387.277C116.676 269.538 136.646 199.876 198.19 137.416C276.684 57.7775 389.827 97.7265 389.827 97.7265" stroke="white" stroke-opacity="0.15" stroke-width="1.34" stroke-miterlimit="10"/><path d="M-58.42 528.737C-58.42 528.737 50.6214 540.29 80.2824 376.199C102.198 254.721 138.213 185.088 205.611 135.045C289.844 72.4984 392.503 110.726 392.503 110.726" stroke="white" stroke-opacity="0.15" stroke-width="1.34" stroke-miterlimit="10"/><path d="M-53.9748 537.889C-53.9748 537.889 55.326 530.404 73.6197 365.198C87.4826 239.904 139.722 170.007 213.016 132.65C302.955 86.8877 395.197 123.679 395.197 123.679" stroke="white" stroke-opacity="0.15" stroke-width="1.34" stroke-miterlimit="10"/></svg>
