<svg width="18" height="19" viewBox="0 0 18 19" fill="none" xmlns="http://www.w3.org/2000/svg">
    <g clip-path="url(#clip0)">
        <path d="M11.0765 4.39744C11.7428 4.52719 12.3552 4.85245 12.8352 5.33159C13.3153 5.81073 13.6412 6.42194 13.7712 7.087M11.0765 1.67383C12.4608 1.82733 13.7518 2.44609 14.7373 3.42852C15.7229 4.41095 16.3445 5.69865 16.5 7.08019M15.8178 12.5138V14.5565C15.8186 14.7461 15.7796 14.9338 15.7035 15.1076C15.6274 15.2813 15.5158 15.4373 15.3758 15.5655C15.2358 15.6937 15.0705 15.7913 14.8905 15.8521C14.7105 15.9128 14.5198 15.9354 14.3306 15.9183C12.2313 15.6906 10.2148 14.9747 8.44315 13.8279C6.79482 12.7825 5.39733 11.3877 4.34991 9.74252C3.19697 7.96618 2.47947 5.94376 2.25554 3.8391C2.23849 3.6508 2.26091 3.46103 2.32137 3.28186C2.38183 3.10269 2.47901 2.93805 2.60671 2.79842C2.73442 2.65879 2.88986 2.54723 3.06313 2.47084C3.2364 2.39445 3.42371 2.35491 3.61313 2.35473H5.65975C5.99082 2.35148 6.31179 2.46849 6.56282 2.68397C6.81386 2.89944 6.97782 3.19867 7.02416 3.52588C7.11054 4.17959 7.27074 4.82145 7.5017 5.43922C7.59349 5.68293 7.61335 5.94779 7.55894 6.20243C7.50453 6.45706 7.37813 6.69079 7.19471 6.87592L6.32831 7.74067C7.29947 9.44534 8.71361 10.8568 10.4215 11.8261L11.2879 10.9613C11.4734 10.7783 11.7076 10.6521 11.9627 10.5978C12.2179 10.5435 12.4832 10.5633 12.7274 10.6549C13.3463 10.8854 13.9894 11.0453 14.6444 11.1316C14.9758 11.1782 15.2784 11.3448 15.4948 11.5997C15.7111 11.8545 15.8261 12.1799 15.8178 12.5138Z" stroke="#DBDBDB" stroke-width="2" stroke-linecap="round" stroke-linejoin="round"/>
    </g>
    <defs>
        <clipPath id="clip0">
            <rect width="18" height="18" fill="white" transform="translate(0 0.173828)"/>
        </clipPath>
    </defs>
</svg>
