<svg width="17" height="17" viewBox="0 0 17 17" fill="none" xmlns="http://www.w3.org/2000/svg">
    <path d="M15.5001 5.74378V1.67383H11.4301" stroke="#DBDBDB" stroke-width="2" stroke-linecap="round" stroke-linejoin="round"/>
    <path d="M10.7543 6.42211L15.5026 1.67383" stroke="#DBDBDB" stroke-width="2" stroke-linecap="round" stroke-linejoin="round"/>
    <path d="M14.8231 12.4727V14.5077C14.8239 14.6966 14.7852 14.8836 14.7095 15.0567C14.6338 15.2298 14.5228 15.3852 14.3836 15.5129C14.2444 15.6406 14.08 15.7379 13.9011 15.7984C13.7221 15.8589 13.5325 15.8814 13.3443 15.8644C11.257 15.6376 9.25199 14.9243 7.49038 13.7819C5.85143 12.7405 4.46188 11.3509 3.42043 9.71195C2.27404 7.94234 1.56062 5.92757 1.33796 3.83087C1.32101 3.64329 1.34331 3.45423 1.40342 3.27574C1.46354 3.09725 1.56016 2.93323 1.68714 2.79413C1.81412 2.65503 1.96868 2.54389 2.14096 2.46779C2.31325 2.39169 2.49949 2.35229 2.68783 2.35212H4.72281C5.05201 2.34888 5.37115 2.46545 5.62075 2.68011C5.87036 2.89477 6.03339 3.19287 6.07946 3.51884C6.16535 4.17008 6.32464 4.80951 6.55429 5.42493C6.64556 5.66772 6.66531 5.93158 6.61121 6.18526C6.55711 6.43893 6.43142 6.67177 6.24904 6.8562L5.38757 7.71768C6.35321 9.4159 7.75931 10.822 9.45753 11.7876L10.319 10.9262C10.5034 10.7438 10.7363 10.6181 10.9899 10.564C11.2436 10.5099 11.5075 10.5296 11.7503 10.6209C12.3657 10.8506 13.0051 11.0098 13.6564 11.0957C13.9859 11.1422 14.2868 11.3082 14.5019 11.5621C14.717 11.816 14.8313 12.1401 14.8231 12.4727Z" stroke="#DBDBDB" stroke-width="2" stroke-linecap="round" stroke-linejoin="round"/>
</svg>
