<svg width="18" height="19" viewBox="0 0 18 19" fill="none" xmlns="http://www.w3.org/2000/svg">
    <g clip-path="url(#clip0)">
        <path d="M7.64323 8.72102C7.57773 9.17543 7.61071 9.6386 7.73995 10.0791C7.86919 10.5197 8.09167 10.9273 8.39228 11.2743C8.69289 11.6212 9.06462 11.8995 9.48224 12.0902C9.89986 12.2809 10.3536 12.3796 10.8127 12.3795H13.5294C14.3688 12.3649 15.1688 12.0212 15.7573 11.4225C16.3457 10.8237 16.6754 10.0178 16.6754 9.17833C16.6754 8.33884 16.3457 7.53293 15.7573 6.93418C15.1688 6.33543 14.3688 5.99176 13.5294 5.97717L11.9764 5.97264" stroke="#DBDBDB" stroke-width="2" stroke-linecap="round" stroke-linejoin="round"/>
        <path d="M10.3583 9.62649C10.4239 9.17209 10.3909 8.70891 10.2616 8.26838C10.1324 7.82784 9.90992 7.42026 9.6093 7.07326C9.30869 6.72627 8.93697 6.44799 8.51935 6.25729C8.10172 6.06659 7.64798 5.96793 7.18888 5.96802L4.47219 5.96802C3.63282 5.9826 2.83276 6.32628 2.24433 6.92503C1.6559 7.52378 1.32617 8.32969 1.32617 9.16918C1.32617 10.0087 1.6559 10.8146 2.24433 11.4133C2.83276 12.0121 3.63282 12.3558 4.47218 12.3703L6.0207 12.3703" stroke="#DBDBDB" stroke-width="2" stroke-linecap="round" stroke-linejoin="round"/>
    </g>
    <defs>
        <clipPath id="clip0">
            <rect width="18" height="18" fill="white" transform="translate(0 0.173828)"/>
        </clipPath>
    </defs>
</svg>
