<svg width="1919" height="326" viewBox="0 0 1919 326" fill="none" xmlns="http://www.w3.org/2000/svg">
    <path d="M-132.766 133.459C-132.766 133.459 29.0566 -41.3113 307.314 11.2296C516.232 50.5282 594.417 372.598 1204.5 264.012C1814.58 155.427 2029.05 426.93 2029.05 426.93" stroke="#007BC3" stroke-opacity="0.3" stroke-width="1.34" stroke-miterlimit="10"/>
    <path d="M-206.303 201.748C-206.303 201.748 -128.431 97.8295 -6.30668 53.1387C66.8663 26.4178 160.207 20.7606 261.918 55.0432C283.151 62.0856 303.425 71.7484 322.272 83.8084C415.49 143.919 486.352 216.374 597.911 263.003C739.006 322.12 940.937 306.259 1255.02 242.103C1798.87 130.896 2061.92 336.42 2169.55 437.142" stroke="#3193CD" stroke-opacity="0.3" stroke-width="1.34" stroke-miterlimit="10"/>
    <path d="M-279.877 270.038C-279.877 270.038 -193.936 136.387 -76.1702 85.2507C3.75753 50.615 108.79 48.2904 216.523 99.13C238.922 109.545 260.045 122.512 279.476 137.773C387.515 223.468 463.681 294.681 585.352 330.16C746.384 377.203 978.38 296.081 1305.42 220.076C1783.46 108.98 2094.59 245.832 2309.93 447.236" stroke="#62ACD7" stroke-opacity="0.3" stroke-width="1.34" stroke-miterlimit="10"/>
    <path d="M-353.495 338.326C-353.495 338.326 -260.146 174.162 -146.038 117.245C-59.5887 74.1085 57.4863 75.3902 171.084 143.138C194.526 157.005 216.479 173.252 236.598 191.62C358.755 303.641 441.046 372.363 572.554 397.355C753.72 431.505 1015.93 287.62 1355.7 198.243C1768.47 89.4838 2127.18 155.437 2450.15 457.524" stroke="#93C4E1" stroke-opacity="0.3" stroke-width="1.34" stroke-miterlimit="10"/>
    <path d="M-427.073 406.653C-427.073 406.653 -326.55 211.625 -215.904 149.317C-105.259 87.008 58.1474 106.733 193.76 245.546C329.372 384.358 418.412 449.694 559.954 464.277C960.487 505.538 1724.93 -342.181 2590.64 467.539" stroke="white" stroke-opacity="0.3" stroke-width="1.34" stroke-miterlimit="10"/>
</svg>
