<svg width="191" height="22" viewBox="0 0 191 22" fill="none" xmlns="http://www.w3.org/2000/svg">
    <path fill-rule="evenodd" clip-rule="evenodd" d="M162.46 3.62809C163.727 4.89491 164.589 6.51119 164.936 8.2707L164.954 8.30169C165.311 9.83433 165.364 11.4223 165.109 12.9753C164.767 15.3599 163.533 17.5251 161.656 19.0311C159.549 20.6743 156.879 21.4143 154.229 21.089C153.004 21.0244 151.804 20.7172 150.698 20.1853C149.592 19.6533 148.603 18.9071 147.787 17.9898C146.645 16.653 145.9 15.0236 145.633 13.2852C145.36 11.8393 145.36 10.355 145.633 8.90914C145.878 7.42989 146.473 6.03099 147.369 4.8296C148.265 3.62822 149.435 2.65933 150.782 2.0041C152.233 1.28202 153.841 0.930676 155.461 0.981363C158.128 1.00616 160.517 1.72517 162.46 3.62809ZM154.297 16.5456C157.224 17.0601 159.106 15.5662 159.787 12.8265L159.774 12.8017C160.104 11.3658 160.044 9.8678 159.601 8.46285C158.691 5.21488 154.928 4.61983 152.793 6.25621C151.228 7.45871 150.751 9.16947 150.751 11.3141C150.75 12.1398 150.89 12.9594 151.166 13.7377C151.369 14.4543 151.772 15.0984 152.326 15.5953C152.88 16.0923 153.564 16.4218 154.297 16.5456Z" fill="#E84735"/>
    <path d="M189.523 1.36571C187.883 1.36571 186.25 1.36571 184.61 1.31612C184.275 1.31612 184.121 1.37191 183.991 1.62604C183.343 2.76845 182.655 3.94376 181.965 5.12348L181.963 5.12589C181.155 6.50569 180.344 7.8915 179.59 9.23769C179.578 9.25797 179.561 9.27484 179.54 9.28674C179.52 9.29865 179.497 9.30523 179.473 9.30588C179.449 9.3047 179.426 9.2979 179.406 9.28604C179.385 9.27418 179.368 9.25761 179.355 9.23769C178.68 8.04567 177.962 6.8164 177.242 5.58432L177.241 5.58333C176.464 4.25305 175.684 2.9195 174.955 1.62604C174.813 1.37191 174.658 1.30992 174.336 1.31612C173.59 1.31612 172.845 1.32895 172.101 1.34177C171.21 1.35712 170.319 1.37246 169.429 1.36571C169.076 1.36571 168.946 1.48968 168.946 1.85538V20.2213C168.946 20.6118 169.076 20.7234 169.447 20.7172H173.34C173.823 20.7172 173.959 20.5684 173.959 20.0973V8.94017C173.959 8.75419 173.959 8.4133 174.033 8.38231C174.107 8.35132 174.175 8.45669 174.206 8.51248C174.598 9.21998 174.99 9.92676 175.381 10.6331L175.387 10.6432C176.14 12.0002 176.891 13.3556 177.635 14.7109C177.74 14.8968 177.808 15.0084 178.031 15.0084H181.02C181.237 15.0084 181.311 14.8968 181.416 14.7109C182.439 12.8349 183.478 10.9689 184.513 9.10856L184.514 9.10767L184.845 8.51248L184.847 8.50762C184.878 8.44518 184.928 8.34608 185.018 8.38231C185.098 8.4145 185.095 8.66952 185.093 8.8581C185.093 8.88743 185.092 8.91514 185.092 8.94017V20.0973C185.092 20.556 185.197 20.7172 185.68 20.7172C186.542 20.6965 187.407 20.7034 188.273 20.7103C188.706 20.7137 189.14 20.7172 189.573 20.7172C189.944 20.7172 190.074 20.6056 190.074 20.2213V1.85538C190.074 1.48968 189.944 1.36571 189.598 1.36571H189.523Z" fill="#E84735"/>
    <path d="M126.522 11.0786V1.99791C126.522 1.50824 126.677 1.37807 127.141 1.37807H131.083C131.572 1.37807 131.702 1.52683 131.702 1.99791V8.04756C131.702 8.51864 131.826 8.6674 132.321 8.6674C133.358 8.68797 134.394 8.6091 135.415 8.43186C135.962 8.30012 136.464 8.02606 136.87 7.63745C137.276 7.24884 137.573 6.7595 137.73 6.21903C138.135 5.02818 138.415 3.79842 138.565 2.54957L138.571 2.51175C138.646 1.95522 138.683 1.67957 138.841 1.54304C138.996 1.40906 139.267 1.40906 139.803 1.40906H143.386C143.795 1.40906 143.882 1.52683 143.795 1.91733C143.683 2.40575 143.59 2.89835 143.497 3.39127C143.363 4.0994 143.23 4.80819 143.04 5.50621C142.464 7.61367 141.802 9.67775 140.069 11.184C139.812 11.4114 139.913 11.6022 140.017 11.7988L140.02 11.8038C141.464 14.4402 142.908 17.0725 144.352 19.7006L144.373 19.74C144.637 20.22 144.77 20.4628 144.698 20.5855C144.624 20.711 144.337 20.7109 143.755 20.7109H139.432C139.306 20.7401 139.173 20.7222 139.059 20.6605C138.945 20.5989 138.858 20.4978 138.813 20.3762C138.096 18.9242 137.364 17.4773 136.633 16.0322L136.632 16.0302C136.215 15.2057 135.798 14.3819 135.384 13.558C135.336 13.4075 135.237 13.2789 135.103 13.195C134.969 13.111 134.81 13.0771 134.654 13.0993C133.806 13.1489 132.946 13.1489 132.098 13.1303C131.708 13.1303 131.603 13.2604 131.603 13.6385V20.1469C131.603 20.5932 131.486 20.7667 131.034 20.7295C129.701 20.7006 128.371 20.7006 127.042 20.7295C126.603 20.7295 126.454 20.6241 126.454 20.1655V11.091L126.522 11.0786Z" fill="#E84735"/>
    <path d="M16.332 1.39671C16.7467 1.39051 16.889 1.48969 16.889 1.92977H16.9509C16.922 3.04549 16.922 4.15707 16.9509 5.26452C16.9633 5.71081 16.8024 5.80378 16.3877 5.80378C15.8644 5.80378 15.3439 5.80725 14.8248 5.8107C13.7906 5.81758 12.7618 5.82442 11.7276 5.80378C11.214 5.80378 11.1088 5.95874 11.1088 6.42362V20.1221C11.1088 20.618 10.9788 20.742 10.4899 20.742H6.46103C5.97831 20.742 5.84215 20.6242 5.84215 20.1221V6.42362C5.84215 5.95255 5.71219 5.80378 5.22328 5.80378H0.563174C0.154718 5.81618 0 5.71081 0 5.26452C0.0330065 4.15294 0.0330065 3.04136 0 1.92977C0 1.48969 0.142341 1.38431 0.556985 1.39051C2.43491 1.40379 4.30653 1.40127 6.18309 1.39874C6.93478 1.39772 7.68742 1.39671 8.44142 1.39671H16.332Z" fill="#007BC3"/>
    <path d="M50.8961 1.92981C50.8961 1.48972 50.7537 1.39055 50.3391 1.39675H34.5578C34.1432 1.39675 33.9947 1.49592 34.0008 1.92981C34.0215 2.66957 34.0146 3.41209 34.0077 4.15369L34.0077 4.15481C34.0043 4.52511 34.0008 4.89518 34.0008 5.26456C34.0008 5.71084 34.1556 5.81622 34.564 5.80382H39.2303C39.7192 5.80382 39.8492 5.95258 39.8492 6.42366V20.1222C39.8492 20.6242 39.9853 20.742 40.4681 20.742H44.4907C44.9796 20.742 45.1096 20.618 45.1096 20.1222V6.42366C45.1096 5.95878 45.221 5.80382 45.7285 5.80382C46.7622 5.82444 47.7905 5.81762 48.826 5.81074C49.3465 5.80729 49.8689 5.80382 50.3948 5.80382C50.8032 5.80382 50.9703 5.71084 50.9579 5.26456C50.9579 4.89609 50.9545 4.52694 50.9511 4.15756V4.15412C50.9442 3.41238 50.9373 2.66972 50.9579 1.92981H50.8961Z" fill="#007BC3"/>
    <path d="M68.9176 1.92981C68.9176 1.48972 68.7753 1.39055 68.3668 1.39675H52.5856C52.1709 1.39675 52.0162 1.49592 52.0286 1.92981C52.0492 2.66972 52.0423 3.41238 52.0355 4.15412V4.15758C52.032 4.52695 52.0286 4.8961 52.0286 5.26456C52.0286 5.71084 52.1833 5.81622 52.5918 5.80382H57.2519C57.747 5.80382 57.8707 5.95258 57.8707 6.42366V20.1222C57.8707 20.6242 58.0069 20.742 58.4896 20.742H62.5123C63.0012 20.742 63.1312 20.618 63.1312 20.1222V6.42366C63.1312 5.95878 63.2426 5.80382 63.75 5.80382C64.7838 5.82444 65.812 5.81762 66.8476 5.81074C67.368 5.80729 67.8906 5.80382 68.4163 5.80382C68.8248 5.80382 68.9919 5.71084 68.9795 5.26456C68.9506 4.15711 68.9506 3.04553 68.9795 1.92981H68.9176Z" fill="#007BC3"/>
    <path d="M108.922 11.0849V2.01041C108.922 1.53313 109.058 1.39057 109.54 1.39057H122.332C122.778 1.39057 122.951 1.47734 122.951 1.97942C122.908 2.97116 122.902 3.96291 122.951 4.94846C122.951 5.46912 122.766 5.53111 122.332 5.53111H114.708C114.176 5.53111 114.033 5.67987 114.089 6.18814C114.118 6.68837 114.108 7.19137 114.099 7.69344V7.6955C114.094 7.9455 114.089 8.19527 114.089 8.44436C114.089 8.82866 114.207 8.94643 114.584 8.94023H121.392C122.011 8.94023 122.042 8.94023 122.042 9.60347V12.3742C122.042 12.8204 121.924 12.994 121.466 12.963H114.714C114.176 12.963 114.046 13.1304 114.095 13.6324C114.12 14.1768 114.112 14.7238 114.104 15.2755C114.099 15.553 114.095 15.8317 114.095 16.1118C114.095 16.5271 114.231 16.6325 114.628 16.6263H122.673C123.131 16.6263 123.261 16.7564 123.242 17.2027C123.222 17.883 123.228 18.5659 123.235 19.2553C123.239 19.6024 123.242 19.9511 123.242 20.3019C123.242 20.6676 123.174 20.8102 122.766 20.8102H109.509C109.058 20.8102 108.977 20.6428 108.977 20.2461V11.1717L108.922 11.0849Z" fill="#007BC3"/>
    <path d="M71.6407 2.02277V11.0477L71.6221 11.1344V20.2585C71.6159 20.5746 71.6221 20.804 72.0615 20.804H85.4725C85.8005 20.804 85.8747 20.6862 85.8747 20.3825C85.8747 20.0317 85.8699 19.683 85.865 19.3359C85.8554 18.6466 85.8459 17.9634 85.8747 17.2833C85.9181 16.775 85.7943 16.62 85.2559 16.62H77.3714C76.8578 16.62 76.7525 16.4837 76.7525 16.0002C76.7774 15.4415 76.769 14.8883 76.7608 14.3388L76.7607 14.3377C76.7566 14.0646 76.7525 13.7924 76.7525 13.5208C76.7402 13.0869 76.8887 12.9754 77.3095 12.9754H84.2223C84.5999 12.9754 84.7298 12.87 84.7298 12.4795V9.60963C84.7236 8.98979 84.7113 8.98979 84.0553 8.98979H77.4024C76.9444 8.98979 76.7835 8.88442 76.7835 8.36995C76.8241 7.63497 76.8241 6.8983 76.7835 6.16331C76.7835 5.66124 76.9382 5.54347 77.4024 5.54347H85.1321C85.5529 5.54347 85.6829 5.4381 85.6829 4.99801C85.6519 3.98767 85.6458 2.97733 85.6829 1.97318C85.7262 1.5145 85.5467 1.40293 85.1073 1.40293C80.8247 1.42359 76.5421 1.42359 72.2595 1.40293C71.7335 1.40293 71.6407 1.57029 71.6407 2.02277Z" fill="#007BC3"/>
    <path fill-rule="evenodd" clip-rule="evenodd" d="M35.6161 20.3329C34.9972 18.7213 34.3784 17.1035 33.7966 15.4919C33.2921 14.1686 32.7812 12.8475 32.2701 11.526L32.2698 11.5253L32.2693 11.5239C31.9093 10.5929 31.5492 9.66169 31.1912 8.72943L30.964 8.13794C30.1658 6.06027 29.3334 3.89369 28.5424 1.73762C28.5172 1.63163 28.4526 1.53927 28.3617 1.47937C28.2709 1.41947 28.1606 1.39656 28.0535 1.4153H22.9416C22.6879 1.4153 22.4836 1.4153 22.3722 1.73142L22.2866 1.94242C21.6964 3.39636 21.1082 4.84519 20.5651 6.29965C20.1276 7.42463 19.6922 8.55066 19.2567 9.67688C18.6389 11.2747 18.0209 12.8731 17.3965 14.4692C16.8295 15.9211 16.2421 17.3662 15.6545 18.812C15.447 19.3228 15.2392 19.834 15.0324 20.3453C14.9334 20.6056 14.9953 20.7234 15.2923 20.7172H19.6925C19.7832 20.7324 19.8763 20.7127 19.9532 20.6622C20.0301 20.6116 20.085 20.5338 20.1072 20.4444C20.3025 19.8515 20.5035 19.27 20.7034 18.6916C20.9215 18.0607 21.1383 17.4336 21.3449 16.7998C21.375 16.6402 21.4665 16.4989 21.5996 16.4062C21.7327 16.3134 21.8968 16.2767 22.0566 16.3039H28.4062C28.566 16.2805 28.7285 16.3206 28.8591 16.4156C28.9898 16.5105 29.0782 16.6528 29.1056 16.8122C29.3261 17.5069 29.561 18.1975 29.796 18.8887C29.9699 19.4 30.144 19.912 30.3124 20.4258C30.3804 20.6242 30.4609 20.711 30.6651 20.711H35.3747C35.647 20.711 35.6842 20.6118 35.5914 20.3639L35.6161 20.3329ZM27.0323 12.2811H23.3996C23.0716 12.2811 22.9973 12.2377 23.1211 11.8844C23.6596 10.3967 24.1785 8.89929 24.7181 7.34243C24.9227 6.75221 25.1302 6.15345 25.3428 5.54345L26.6672 9.46704C26.7518 9.71705 26.835 9.96774 26.9182 10.2184C27.0846 10.7198 27.251 11.2212 27.4284 11.7171C27.5955 12.1943 27.5522 12.2749 27.0323 12.2749V12.2811Z" fill="#007BC3"/>
    <path d="M88.7401 16.5891C91.228 16.6263 92.212 13.0622 92.212 5.51252V2.67984C92.2112 2.52792 92.2403 2.37734 92.2978 2.23674C92.3553 2.09615 92.44 1.96832 92.5469 1.86061C92.6539 1.75289 92.7811 1.66742 92.9211 1.60909C93.0612 1.55076 93.2114 1.52074 93.3631 1.52074H105.208C105.281 1.52074 105.353 1.53521 105.421 1.56332C105.488 1.59143 105.549 1.63262 105.6 1.6845C105.651 1.73639 105.692 1.79794 105.719 1.86558C105.746 1.93323 105.76 2.00563 105.759 2.0786V20.1036C105.759 20.2505 105.701 20.3914 105.598 20.4959C105.495 20.6003 105.355 20.6598 105.208 20.6614H101.359C101.212 20.6598 101.072 20.6003 100.969 20.4959C100.866 20.3914 100.808 20.2505 100.808 20.1036V6.39269C100.808 6.24639 100.75 6.10607 100.647 6.00261C100.543 5.89916 100.403 5.84104 100.257 5.84104H97.5467C97.4021 5.84261 97.2639 5.90039 97.1611 6.00217C97.0583 6.10396 96.9991 6.24177 96.9959 6.3865C96.7669 18.0829 93.4373 20.7172 88.7772 20.9032C88.7031 20.9057 88.6291 20.8933 88.5598 20.8667C88.4905 20.8402 88.4271 20.8001 88.3735 20.7487C88.3199 20.6973 88.2771 20.6357 88.2476 20.5675C88.2181 20.4993 88.2025 20.4259 88.2017 20.3515V17.0726C88.2022 17.0044 88.2169 16.9371 88.2449 16.8749C88.2729 16.8128 88.3135 16.7572 88.3642 16.7116C88.4149 16.6661 88.4745 16.6317 88.5392 16.6106C88.604 16.5895 88.6724 16.5822 88.7401 16.5891Z" fill="#007BC3"/>
</svg>
