<svg width="116" height="40" viewBox="0 0 116 40" fill="none" xmlns="http://www.w3.org/2000/svg">
    <g clip-path="url(#clip0)">
        <path fill-rule="evenodd" clip-rule="evenodd" d="M20.0284 4.89303C22.4541 9.03145 27.8392 19.0322 27.6538 25.9013C27.7321 27.8321 27.2211 28.7385 26.7739 29.2739C26.6553 29.4079 26.511 29.5166 26.3496 29.5936C26.1882 29.6706 26.0129 29.7143 25.8342 29.722C23.9847 29.8116 22.1316 29.7929 20.2843 29.666C19.7046 29.562 19.1928 29.2139 18.7929 28.2497C18.4368 27.3699 18.1298 26.471 17.8733 25.5572C16.6337 27.7616 15.3062 29.678 14.3146 29.63C13.9676 29.629 13.6337 29.4977 13.379 29.2619C13.0996 29.4925 12.7563 29.6321 12.3953 29.662H12.3114C12.1833 29.6507 12.0592 29.612 11.9474 29.5485C11.8357 29.485 11.7389 29.3982 11.6636 29.2939C11.3671 29.5508 10.9883 29.6927 10.596 29.694C10.4399 29.6765 10.2899 29.6233 10.1575 29.5387C10.0251 29.4541 9.91387 29.3402 9.83233 29.2059C9.46563 29.498 9.00954 29.6549 8.54082 29.65C8.2398 29.6198 7.9613 29.4769 7.76112 29.2499C7.41588 29.5112 6.99443 29.6517 6.56157 29.65C6.2598 29.6261 5.97635 29.4957 5.76188 29.2819C5.42774 29.5467 5.01253 29.688 4.58633 29.682C4.30663 29.6686 4.03814 29.5679 3.81862 29.3939C2.63907 29.906 1.19962 29.822 0.451909 28.1377C-1.90719 22.9166 5.64593 8.32572 8.27292 4.65698C9.59642 2.80061 10.8479 1.52836 12.0515 0.80021C12.6125 0.428817 13.2418 0.173112 13.9028 0.0480591C14.2492 -0.00827763 14.6017 -0.0163559 14.9504 0.0240543C16.9576 0.260102 18.0332 1.7444 20.0284 4.89303ZM23.5911 29.2579C23.9187 28.7715 24.1546 28.2291 24.2868 27.6576C24.5295 26.3552 24.6553 25.0336 24.6627 23.7088V22.8006C24.6627 22.7526 24.7066 23.2927 24.7186 24.0689C24.7351 25.0038 24.6978 25.9388 24.6067 26.8694C24.4667 28.2577 23.9509 28.9738 23.5791 29.2699L23.5911 29.2579ZM22.8354 29.2699C23.1733 28.7188 23.4102 28.1119 23.5351 27.4775C23.895 25.9692 23.9349 22.1965 23.9349 22.0125C24.0326 23.5333 24.0139 25.0594 23.879 26.5774C23.739 28.1417 23.1912 28.9778 22.8474 29.2699H22.8354ZM21.8957 29.2699C22.3379 28.741 22.6331 28.1049 22.7514 27.4255C23.0753 25.9852 23.2592 21.7764 23.2872 21.0723C23.2872 21.0723 23.3472 23.4047 23.1992 25.3731C22.9673 28.4897 22.3276 28.9738 21.8957 29.2699ZM21.6158 28.2377C21.5838 28.1897 19.9245 23.1167 18.8489 19.2439C19.7397 21.7122 20.4028 23.7672 21.3987 26.8533L21.3997 26.8565C21.5076 27.1909 21.6194 27.5373 21.7358 27.8976C21.7071 28.0141 21.6683 28.1279 21.6198 28.2377H21.6158ZM19.733 25.6758L19.7328 25.6751C19.6015 25.2583 19.4455 24.763 19.2487 24.1489C18.421 21.5684 17.6253 18.2677 17.6253 18.2677C17.6253 18.2677 18.8649 22.0845 19.6766 24.693C20.2843 26.6454 20.9641 28.5338 21.2 28.7498C21.1982 28.7516 21.1961 28.7539 21.1936 28.7567C21.1443 28.8115 20.947 29.0309 20.5362 28.0377C20.2477 27.31 20.0736 26.7573 19.733 25.6758ZM19.9365 28.7018C18.7614 26.5593 17.3145 20.8733 16.6835 18.3935L16.6833 18.3929C16.5549 17.8882 16.4602 17.5163 16.4086 17.3344C16.6366 18.1172 19.4356 27.6931 20.2523 28.8058C20.4363 29.0579 20.5602 29.1419 20.7162 29.0779C20.7162 29.0779 20.3163 29.4459 19.9165 28.6778L19.9365 28.7018ZM14.3186 29.2139C14.0878 29.2147 13.864 29.134 13.6869 28.9858C14.8864 27.9456 16.2739 25.8452 17.3974 23.8848C17.4685 24.1583 17.5395 24.4074 17.608 24.6476L17.6082 24.648C17.6398 24.759 17.671 24.8683 17.7013 24.977C16.1459 27.7776 15.0143 29.2099 14.3346 29.2099L14.3186 29.2139ZM13.395 28.5538C13.3005 28.2239 13.2706 27.8788 13.307 27.5376C14.5891 25.6994 15.7537 23.7818 16.7937 21.7964L16.7986 21.8143C16.9327 22.2997 17.0592 22.7576 17.1935 23.1687C15.822 25.6332 14.4146 27.6056 13.395 28.5538ZM12.3913 29.1299H12.3634C12.3067 29.1228 12.2525 29.1029 12.2047 29.0717C12.1568 29.0405 12.1168 28.9988 12.0875 28.9498C12.381 28.6733 12.6549 28.3765 12.9072 28.0617C12.9171 28.324 12.9726 28.5825 13.0711 28.8258C12.8803 28.9934 12.6434 29.0994 12.3913 29.1299ZM11.7516 27.2855C12.4087 26.4636 13.0239 25.609 13.5949 24.725C13.3023 25.4939 13.0867 26.29 12.9511 27.1015C12.621 27.5611 12.2589 27.997 11.8675 28.4057C11.7803 28.0348 11.74 27.6545 11.7476 27.2735L11.7516 27.2855ZM11.2358 26.6494C10.8481 27.1541 10.4259 27.6313 9.97227 28.0777C9.90007 27.7609 9.85724 27.4381 9.84432 27.1135C10.5124 26.2121 11.1343 25.2774 11.7076 24.3129C11.4789 25.0686 11.3223 25.8442 11.2398 26.6294L11.2358 26.6494ZM10.7 29.1299H10.652C10.5669 29.1166 10.4862 29.0832 10.4167 29.0324C10.3471 28.9816 10.2907 28.9149 10.2522 28.8378C10.5973 28.54 10.9219 28.2192 11.2238 27.8776C11.2488 28.1692 11.3037 28.4575 11.3877 28.7378L11.4117 28.8018C11.2109 28.9838 10.9574 29.0973 10.688 29.1259L10.7 29.1299ZM7.75712 25.6852C7.83171 24.4631 8.10171 23.261 8.55681 22.1245L8.56356 22.1059C9.21646 20.3052 12.0688 12.4386 13.5949 13.6028C13.8 13.7572 13.9714 13.9519 14.0987 14.1749C14.0249 14.2994 13.9459 14.4289 13.8604 14.5692C13.5473 15.0825 13.1462 15.7403 12.5873 16.8274C12.4113 17.1715 12.1354 17.7116 11.9195 18.1477C10.9919 20.0041 9.32452 23.2247 7.76512 25.7092L7.75712 25.6852ZM9.30053 26.5094C8.92158 27.0378 8.50463 27.5379 8.05301 28.0057C7.96268 27.6613 7.90643 27.3088 7.88507 26.9534C8.46485 26.1333 9.06062 25.1611 9.66839 24.0969C9.46691 24.8828 9.34501 25.687 9.30453 26.4974L9.30053 26.5094ZM8.62079 28.8458C8.5379 28.8368 8.46045 28.8002 8.40087 28.7418C8.74166 28.4233 9.06091 28.0825 9.35651 27.7216C9.3908 27.9734 9.44427 28.2221 9.51645 28.4657C9.27529 28.7019 8.95754 28.8439 8.62079 28.8658V28.8458ZM7.35327 22.1805C6.86123 23.3921 6.284 24.5672 5.62593 25.6972C5.89383 20.4441 10.2642 12.4025 12.7352 8.91783C14.2506 6.7734 15.6341 5.66118 16.8377 5.43714C18.4358 5.14305 19.0246 6.4635 19.2927 7.06463C19.3164 7.11773 19.3375 7.16522 19.3567 7.20549C19.1866 7.06526 18.9824 6.97275 18.7649 6.93744C18.4009 6.89284 18.0316 6.91864 17.6773 7.01345C16.4138 7.34152 15.0823 8.48975 13.6789 10.4421C13.1166 11.1706 12.6151 11.944 12.1794 12.7546C10.8159 13.8348 9.02064 18.0037 7.85308 20.9482C7.69714 21.3483 7.41325 22.0445 7.35327 22.1805ZM6.62155 28.8618C6.5371 28.8537 6.45667 28.8218 6.38964 28.7698C6.67379 28.4971 6.94087 28.2072 7.18934 27.9016C7.22399 28.0723 7.26664 28.239 7.31729 28.4017C7.33728 28.4697 7.36127 28.5338 7.38526 28.5938C7.18314 28.7495 6.93991 28.8427 6.68553 28.8618H6.62155ZM5.92182 27.9656C5.85458 27.7506 5.80116 27.5314 5.76188 27.3095C6.21371 26.6614 6.67353 25.9012 7.14135 25.0691C7.0643 25.6297 7.03354 26.1957 7.04939 26.7614C6.72217 27.2335 6.36137 27.6814 5.9698 28.1017L5.92182 27.9656ZM4.71028 28.8898H4.6703C4.61694 28.8842 4.56527 28.8679 4.51836 28.8418C4.73935 28.6246 4.94762 28.3949 5.14212 28.1537V28.2057C5.19326 28.3603 5.25471 28.5114 5.32605 28.6578C5.14727 28.7926 4.93353 28.8731 4.71028 28.8898ZM3.91059 27.7816C2.3192 22.2605 8.20495 11.1023 11.1678 6.88143C12.7672 4.63298 14.2586 3.42073 15.5222 3.16868C17.1959 2.83589 17.9772 4.30828 18.2322 4.7889C18.2623 4.84563 18.2851 4.88854 18.3011 4.91303C18.0343 4.75185 17.7365 4.64861 17.4272 4.61001C17.1179 4.57141 16.804 4.59832 16.5058 4.68899C15.1343 5.05706 13.6269 6.2533 12.0635 8.46574C9.8883 11.5424 4.36241 20.9082 4.86622 26.7334C4.62563 27.1833 4.32425 27.598 3.97056 27.9656C3.94022 27.9084 3.91609 27.848 3.89859 27.7856L3.91059 27.7816ZM1.49951 27.9216C-0.987542 23.6608 6.2337 9.36192 9.16458 5.2651C10.628 3.22469 11.9955 1.92043 13.195 1.36832C13.6345 1.16518 14.1106 1.05356 14.5945 1.04026C15.7261 1.04026 16.3578 1.63238 16.9656 2.54456C16.9615 2.54232 16.9563 2.5394 16.95 2.53587L16.9495 2.53561C16.6616 2.37377 14.1605 0.967784 10.3401 6.2733C10.3401 6.2733 0.879745 20.4841 3.02693 28.0177C3.08177 28.1881 3.14995 28.354 3.23085 28.5138C3.11889 28.6658 2.13127 29.0619 1.46752 27.9176L1.49951 27.9216ZM20.1631 9.42062L20.1777 9.46244C20.1729 9.45969 20.1677 9.45658 20.162 9.45317C20.0883 9.40895 19.9343 9.31653 19.4207 9.35792C18.1452 9.46194 16.7857 10.5142 15.3582 12.4985L14.8664 13.2027C14.675 12.9466 14.4263 12.739 14.1402 12.5966C13.8541 12.4541 13.5386 12.3808 13.219 12.3825C13.5949 11.8104 13.9947 11.2023 14.2986 10.8022C15.7061 8.82582 17.0496 7.85362 18.1811 7.7296C19.5223 7.58221 19.9729 8.8749 20.1631 9.42062ZM16.3218 20.0961C16.4178 20.4201 16.5098 20.7402 16.5977 21.0523C15.87 22.3845 14.6985 24.521 13.5309 26.2533C13.8844 24.9843 14.3514 23.7497 14.9264 22.5646C15.5781 21.4603 16.0819 20.5362 16.3218 20.0841V20.0961ZM9.92429 25.6052C10.1518 24.1938 10.5423 22.8136 11.0878 21.4923C11.8196 19.768 14.2866 15.2991 14.5665 14.879C14.7544 15.3111 14.9664 15.8232 15.1503 16.3833C14.9975 16.63 14.8416 16.9115 14.6752 17.2122L14.675 17.2126C14.5715 17.3995 14.464 17.5938 14.3506 17.7916L14.3306 17.8276L13.9947 18.5118C12.7678 20.9485 11.409 23.3165 9.92429 25.6052ZM13.387 21.3843C13.8468 20.5442 14.2946 19.692 14.7265 18.8558C14.8704 18.5798 15.3582 17.6556 15.4982 17.3995C15.6661 17.9116 15.834 18.4437 15.994 18.9998C15.874 19.2199 15.7421 19.4559 15.5941 19.712C14.4987 21.7987 13.2699 23.8126 11.9155 25.7412C12.2467 24.2437 12.7401 22.7868 13.387 21.3963V21.3843ZM20.7591 11.274C20.8211 11.4717 20.8382 11.5263 20.8512 11.582C20.8561 11.6033 20.8604 11.6247 20.8664 11.6543L20.8721 11.6824C20.85 11.6696 20.8255 11.6614 20.8001 11.6584H20.7322C19.4606 11.5744 17.9932 12.5786 16.3938 14.827C16.1459 14.559 15.7781 14.1629 15.3462 13.7068C15.6559 13.1752 16.0062 12.6682 16.3938 12.1905C17.6773 10.6302 18.481 10.0741 19.7166 10.0061L19.7209 10.006C19.7819 10.0049 20.3801 9.99418 20.4923 10.3501H20.4723C20.6187 10.8263 20.7056 11.1034 20.7591 11.274ZM17.1215 14.803C18.473 12.9426 19.7205 12.0745 20.8281 12.2105C20.8601 12.2119 20.8913 12.2214 20.9186 12.2382C20.9459 12.255 20.9684 12.2785 20.9841 12.3065C21.052 12.4785 21.3839 13.7748 21.3839 13.9068H21.176C20.1844 13.9068 19.1967 14.603 18.1292 16.0513L17.8773 16.4113L16.7937 15.2511L17.1215 14.803ZM18.1851 16.7154C18.2744 16.5523 18.3732 16.3947 18.481 16.2433C19.4487 14.939 20.3363 14.2829 21.172 14.2829C21.172 14.2829 21.4559 14.2829 21.4759 14.3549C21.9936 16.281 22.3191 18.2537 22.4475 20.2441V20.4481C22.4475 20.4481 22.4235 21.0763 22.4195 21.1203L18.1851 16.7154ZM22.0667 22.6636C21.9392 22.2608 21.8277 21.9086 21.6811 21.5606C21.9683 22.0735 22.4381 23.2175 22.3915 23.6448C22.2615 23.2788 22.1598 22.9577 22.0667 22.6636ZM22.1396 26.6494C22.1103 26.7934 22.081 26.9268 22.0517 27.0495C21.6998 26.0093 21.22 24.521 20.7921 23.0727C20.5522 22.2725 20.1644 20.8442 19.9924 20.1641C20.5848 21.89 21.078 23.4096 21.4617 24.592C21.754 25.4928 21.9828 26.1979 22.1436 26.6494H22.1396ZM21.4786 22.9263L21.4784 22.9258L21.4679 22.8926C21.2918 22.3505 21.1708 21.915 21.0514 21.4851C20.9945 21.2805 20.938 21.0771 20.8761 20.8642C21.5518 22.6806 21.7798 23.3447 22.2836 24.821C22.2938 25.0022 22.2938 25.1839 22.2836 25.3651L22.2676 25.3611C21.9913 24.5398 21.75 23.7805 21.4786 22.9263ZM25.4504 23.4087C25.5479 24.6154 25.5385 25.8284 25.4224 27.0335C25.3024 28.2737 24.8146 28.9178 24.4947 29.1939C24.798 28.7537 25.0138 28.2593 25.1305 27.7376C25.4384 26.5374 25.4624 23.5568 25.4504 23.4127V23.4087ZM26.1861 23.9808C26.2879 25.0542 26.2732 26.1354 26.1421 27.2055C26.0141 28.3337 25.5383 28.9498 25.1945 29.2059C25.4889 28.7992 25.707 28.3424 25.8382 27.8576C26.1701 26.7654 26.1741 24.1049 26.1661 23.9728L26.1861 23.9808ZM26.5859 28.0057C26.8602 27.1504 26.8806 25.1492 26.8762 24.6401C26.9756 25.5647 26.9708 26.4977 26.8618 27.4215C26.8453 27.7626 26.7595 28.0968 26.6097 28.4036C26.4598 28.7103 26.249 28.9833 25.9902 29.2059C26.2576 28.8439 26.4592 28.4376 26.5859 28.0057Z" fill="#E45620"/>
        <path d="M108.655 14.547C110.774 14.547 112.621 13.2267 112.805 11.5304H110.502C110.367 11.5623 110.242 11.63 110.142 11.7264C109.73 12.0456 109.224 12.2189 108.703 12.2189C108.181 12.2189 107.675 12.0456 107.263 11.7264C107.235 11.7069 107.206 11.6848 107.178 11.6626C107.089 11.5934 106.997 11.5224 106.903 11.5224H104.42C104.784 13.5228 106.723 14.543 108.651 14.535L108.655 14.547Z" fill="#E45620"/>
        <path fill-rule="evenodd" clip-rule="evenodd" d="M53.7476 22.9006H62.5922C62.6944 22.2684 62.7412 21.6285 62.7321 20.9882C62.7321 17.3555 60.1851 15.031 56.4345 15.031C52.4601 15.031 49.4932 17.8996 49.4932 22.0004C49.4932 26.3453 52.4601 28.8338 56.5745 28.8338C58.6836 28.8992 60.7535 28.2539 62.4522 27.0014C62.3338 25.9173 61.7902 24.9244 60.9408 24.2409C59.796 25.0621 58.4306 25.5194 57.0223 25.5531C55.0351 25.5531 53.9995 24.733 53.7476 22.9006ZM56.4545 18.1157C58.1619 18.2037 58.7776 19.3479 58.7776 20.6041H53.7396C53.9355 19.1279 54.8551 18.1157 56.4545 18.1157Z" fill="#E45620"/>
        <path d="M80.0495 14.947C78.4987 14.9464 76.9775 15.3712 75.6512 16.1753C74.6436 15.4111 73.1881 14.947 71.3128 14.947C70.2133 14.9472 69.1192 15.1007 68.0621 15.4031C67.5986 15.3535 67.1328 15.3281 66.6666 15.3271C65.973 15.3272 65.2804 15.3821 64.5954 15.4911V28.3657C65.2805 28.4746 65.973 28.5294 66.6666 28.5297C67.3722 28.5299 68.0767 28.475 68.7738 28.3657V19.1639C69.43 18.7909 70.1744 18.6015 70.929 18.6158C72.4964 18.6158 73.3281 19.4639 73.3281 21.0763V28.3657C74.013 28.4757 74.7056 28.5305 75.3993 28.5297C76.1022 28.5295 76.804 28.4746 77.4985 28.3657V20.1961C77.4931 19.9286 77.4744 19.6616 77.4425 19.3959C78.087 18.9096 78.8745 18.6507 79.6816 18.6598C81.249 18.6598 82.0327 19.5079 82.0327 21.1203V28.3657C83.4237 28.5844 84.8402 28.5844 86.2311 28.3657V20.1961C86.2311 17.1635 84.2319 14.947 80.0735 14.947H80.0495Z" fill="#E45620"/>
        <path fill-rule="evenodd" clip-rule="evenodd" d="M100.474 27.5256V20.7242L100.486 20.7162C100.486 16.6714 97.8267 15.031 93.9642 15.031C91.8985 15.0085 89.8846 15.6774 88.2424 16.9314C88.3218 17.4728 88.5247 17.9885 88.8353 18.4388C89.1459 18.889 89.556 19.2617 90.0337 19.528C91.0926 18.7994 92.3472 18.4089 93.6323 18.4077C95.5756 18.4077 96.3753 19.1999 96.3753 20.3201V20.8402C95.4643 20.5826 94.523 20.448 93.5763 20.4401C90.1816 20.4121 87.7825 21.8084 87.7825 24.541C87.7825 27.3855 89.9737 28.8058 93.7803 28.8058C96.072 28.8039 98.3428 28.3696 100.474 27.5256ZM96.3393 25.6612C95.6898 25.8528 95.0171 25.9537 94.34 25.9612L94.3161 25.9732C92.7167 25.9732 91.917 25.3291 91.917 24.3729C91.917 23.4167 92.7287 22.9806 94.0442 22.9806C94.8194 22.973 95.592 23.074 96.3393 23.2807V25.6612Z" fill="#E45620"/>
        <path d="M37.2898 10.8022C37.1542 10.8009 37.0225 10.8475 36.9179 10.9339C36.8133 11.0203 36.7425 11.1408 36.7181 11.2743C36.7181 11.2743 35.3386 19.676 34.7508 23.2767C34.6029 24.1809 34.235 24.877 33.3034 25.101L33.1074 25.1411C33.034 25.1464 32.9627 25.1679 32.8984 25.2038C32.8342 25.2398 32.7786 25.2893 32.7356 25.3491C32.6243 25.4843 32.5487 25.6452 32.5157 25.8172C32.3048 26.678 32.3048 27.5769 32.5157 28.4377C32.6596 29.0418 32.7956 29.1219 33.2074 29.0538C33.6903 28.9715 34.1682 28.8619 34.6388 28.7258C37.1299 27.8576 38.4934 26.0292 39.0132 23.5847C39.393 21.8044 40.5286 14.4869 40.5286 14.4869H43.3995V28.3657C44.0932 28.4838 44.7951 28.548 45.4987 28.5577C46.1971 28.5486 46.8936 28.4844 47.5819 28.3657V10.8022H37.2898Z" fill="#E45620"/>
        <path d="M111.03 15.5192C111.715 15.4114 112.407 15.3566 113.101 15.3551C113.804 15.3554 114.506 15.4103 115.2 15.5192V28.4017C114.515 28.5106 113.823 28.5654 113.129 28.5658C112.426 28.5655 111.724 28.5106 111.03 28.4017C110.904 28.4208 110.73 28.4524 110.527 28.4893C110.135 28.5607 109.633 28.6518 109.166 28.7098C108.342 28.825 107.505 28.8169 106.683 28.6858C103.513 28.1657 102.213 26.2613 102.213 23.5568V15.5192C102.907 15.4103 103.609 15.3554 104.312 15.3551C105.006 15.3554 105.698 15.4103 106.383 15.5192V22.6446C106.383 24.4209 106.931 25.2691 108.93 25.2691C109.651 25.2904 110.367 25.1538 111.03 24.869V15.5192Z" fill="#E45620"/>
        <path d="M68.306 37.2275V34.723C68.306 34.5869 68.35 34.5549 68.4779 34.5589H69.5935C69.7335 34.5589 69.7614 34.5989 69.7614 34.727V36.3953C69.7614 36.5233 69.7974 36.5713 69.9334 36.5633C70.2268 36.5682 70.5199 36.5454 70.809 36.4953C70.962 36.4603 71.1031 36.3857 71.2182 36.279C71.3333 36.1723 71.4183 36.0372 71.4648 35.8872C71.5784 35.5589 71.6575 35.2197 71.7007 34.875L71.7023 34.8636C71.7446 34.5629 71.7447 34.5629 72.0606 34.5589C72.2737 34.5563 72.5028 34.5572 72.7324 34.558C72.8475 34.5585 72.9627 34.5589 73.0762 34.5589C73.1921 34.5589 73.2161 34.5909 73.1921 34.699C73.1625 34.8267 73.1372 34.9557 73.1119 35.0847C73.0721 35.287 73.0324 35.4893 72.9762 35.6872C72.8629 36.2823 72.5698 36.8283 72.1365 37.2515C72.0606 37.3155 72.0926 37.3675 72.1365 37.4235L73.3481 39.6079C73.4277 39.7473 73.4676 39.8173 73.4473 39.8525C73.4268 39.888 73.3449 39.888 73.1801 39.888H71.9806C71.9463 39.8943 71.9109 39.8885 71.8803 39.8718C71.8497 39.855 71.8259 39.8283 71.8127 39.796C71.5995 39.3747 71.3827 38.9569 71.166 38.5392C71.0575 38.3301 70.9491 38.1211 70.841 37.9116C70.8273 37.869 70.7988 37.8327 70.7607 37.8092C70.7226 37.7857 70.6773 37.7767 70.6331 37.7836H69.9094C69.7974 37.7836 69.7694 37.8196 69.7694 37.9236V39.72C69.7694 39.844 69.7375 39.884 69.6055 39.88H68.4739C68.35 39.88 68.31 39.852 68.31 39.724V37.2195L68.306 37.2275Z" fill="#E45620"/>
        <path d="M63.3199 34.727V37.2315L63.3079 37.2275V39.732C63.3039 39.844 63.3279 39.888 63.4558 39.888H67.2064C67.3424 39.888 67.3424 39.848 67.3424 39.748V38.8998C67.3464 38.7758 67.3104 38.7398 67.1824 38.7398H64.9073C64.7953 38.7398 64.7553 38.7118 64.7553 38.5958V37.9156C64.7514 37.7756 64.7873 37.7316 64.9393 37.7316H66.8505C66.9825 37.7316 67.0145 37.6916 67.0145 37.5676V36.8034C67.0145 36.7114 67.0145 36.6654 66.9915 36.6424C66.9685 36.6194 66.9225 36.6194 66.8306 36.6194H64.9033C64.7953 36.6194 64.7633 36.5874 64.7633 36.4833V35.8632C64.7553 35.7232 64.7953 35.6792 64.9473 35.6792H67.1064C67.2304 35.6792 67.2824 35.6632 67.2824 35.5192V34.719C67.2904 34.583 67.2344 34.559 67.1104 34.559H63.4918C63.3599 34.559 63.3199 34.595 63.3199 34.727Z" fill="#E45620"/>
        <path d="M52.7799 37.2075V34.719C52.7799 34.595 52.8079 34.547 52.9479 34.547H56.5825C56.7064 34.547 56.7504 34.575 56.7464 34.703V35.5351C56.7464 35.6552 56.7064 35.6872 56.5905 35.6872H54.4033C54.2713 35.6872 54.2234 35.7192 54.2314 35.8552C54.2434 36.0577 54.2434 36.2608 54.2314 36.4633C54.2314 36.6074 54.2753 36.6354 54.4113 36.6314H56.2946C56.4825 36.6314 56.4865 36.6314 56.4865 36.8114V37.6116C56.4865 37.7196 56.4505 37.7476 56.3426 37.7476H54.3793C54.2594 37.7476 54.2194 37.7796 54.2234 37.8996V38.5758C54.2234 38.7078 54.2554 38.7558 54.3993 38.7518H56.6305C56.7824 38.7518 56.8184 38.7958 56.8104 38.9358V39.784C56.8104 39.868 56.7904 39.9 56.6984 39.9H52.8999C52.7759 39.9 52.7759 39.836 52.7759 39.748V37.2315L52.7799 37.2075Z" fill="#E45620"/>
        <path d="M37.1219 34.563H34.8908V34.567H32.6436C32.5396 34.567 32.5037 34.591 32.5037 34.699V35.6472C32.5037 35.7552 32.5436 35.7832 32.6476 35.7832H33.9351C34.0324 35.7832 34.0804 35.7832 34.1041 35.8072C34.127 35.8305 34.127 35.8765 34.127 35.9673V39.728C34.127 39.852 34.151 39.896 34.291 39.896H35.4505C35.5905 39.9 35.6305 39.864 35.6305 39.724V35.9472C35.6305 35.8192 35.6585 35.7792 35.7984 35.7792H37.1179C37.2339 35.7832 37.2778 35.7512 37.2778 35.6312V34.711C37.2818 34.591 37.2379 34.563 37.1219 34.563Z" fill="#E45620"/>
        <path d="M44.5151 34.563H46.7462C46.8622 34.563 46.9062 34.591 46.9022 34.711V35.6152C46.9022 35.7512 46.8582 35.7832 46.7262 35.7792H45.4227C45.2828 35.7792 45.2548 35.8192 45.2548 35.9472V39.724C45.2548 39.86 45.2188 39.9 45.0789 39.896H43.9353C43.7994 39.896 43.7554 39.868 43.7554 39.728V35.9673C43.7554 35.8765 43.7554 35.8305 43.7324 35.8072C43.7088 35.7832 43.6608 35.7832 43.5634 35.7832H42.26C42.156 35.7832 42.116 35.7552 42.116 35.6472V34.699C42.116 34.587 42.156 34.567 42.26 34.567H44.5071L44.5151 34.563Z" fill="#E45620"/>
        <path d="M51.8323 34.563H49.6171L49.5971 34.567H47.35C47.234 34.563 47.2021 34.591 47.2021 34.707V35.6112C47.1981 35.7392 47.23 35.7832 47.37 35.7832H48.6575C48.8094 35.7792 48.8414 35.8272 48.8414 35.9673V39.756C48.8414 39.864 48.8694 39.9 48.9854 39.9H50.1849C50.3209 39.904 50.3528 39.86 50.3528 39.732V35.9392C50.3528 35.8112 50.3888 35.7792 50.5168 35.7792H51.8643C51.9642 35.7832 52.0002 35.7512 52.0002 35.6512V34.731C52.0002 34.603 51.9722 34.563 51.8323 34.563Z" fill="#E45620"/>
        <path fill-rule="evenodd" clip-rule="evenodd" d="M79.1699 36.4593C79.0699 35.9721 78.8262 35.5261 78.4701 35.1791C78.2015 34.9314 77.8865 34.7392 77.5435 34.6135C77.2004 34.4879 76.8359 34.4313 76.4709 34.4469C76.0136 34.4322 75.5596 34.5283 75.1474 34.727C74.7695 34.9038 74.4398 35.1692 74.1865 35.5007C73.9331 35.8323 73.7634 36.2202 73.6919 36.6314C73.6154 37.0278 73.6154 37.4352 73.6919 37.8316C73.7676 38.3126 73.9784 38.7622 74.2997 39.1279C74.7715 39.6406 75.4271 39.9456 76.123 39.976C76.8686 40.0658 77.6199 39.8621 78.2182 39.4079C78.7465 38.9969 79.0959 38.3979 79.1938 37.7356C79.266 37.3076 79.251 36.8694 79.1499 36.4473L79.1699 36.4593ZM77.7184 37.7116C77.6914 37.8852 77.6286 38.0513 77.5339 38.1993C77.4391 38.3473 77.3146 38.4739 77.1683 38.571C77.0219 38.6681 76.8569 38.7336 76.6838 38.7634C76.5107 38.7932 76.3334 38.7865 76.163 38.7438C75.9575 38.7115 75.7653 38.6219 75.6083 38.4854C75.4513 38.3488 75.3359 38.1708 75.2753 37.9716C75.1981 37.7574 75.1589 37.5313 75.1594 37.3035C75.1306 37.0407 75.1686 36.775 75.27 36.5308C75.3714 36.2867 75.5328 36.0722 75.7392 35.9072C75.8973 35.7879 76.0816 35.7081 76.2768 35.6744C76.472 35.6408 76.6724 35.6542 76.8613 35.7137C77.0502 35.7732 77.2222 35.877 77.3629 36.0164C77.5037 36.1559 77.6091 36.3269 77.6704 36.5154C77.7957 36.9035 77.8123 37.3186 77.7184 37.7156V37.7116Z" fill="#E45620"/>
        <path fill-rule="evenodd" clip-rule="evenodd" d="M42.3954 39.3015C42.4581 39.4653 42.5207 39.6289 42.5838 39.792L42.5798 39.796C42.6078 39.864 42.5958 39.892 42.5198 39.892H41.1884C41.1284 39.892 41.0884 39.868 41.0884 39.812C41.0365 39.6524 40.9809 39.4937 40.9252 39.3347C40.865 39.1627 40.8046 38.9903 40.7485 38.8158C40.7398 38.7711 40.714 38.7316 40.6768 38.7055C40.6395 38.6794 40.5936 38.6687 40.5486 38.6758H38.7533C38.709 38.6696 38.664 38.68 38.6271 38.7052C38.5901 38.7303 38.5639 38.7683 38.5534 38.8118L38.4784 39.0214C38.3836 39.2863 38.2893 39.5501 38.1975 39.816C38.1909 39.8415 38.1748 39.8636 38.1525 39.8777C38.1302 39.8918 38.1034 39.8969 38.0775 39.892H36.834C36.762 39.892 36.7341 39.86 36.762 39.788L36.8863 39.4886C37.0687 39.0493 37.2506 38.6111 37.4298 38.1677C37.6044 37.7322 37.7776 37.2953 37.951 36.8579L37.9515 36.8566L37.9526 36.8537C38.0766 36.5411 38.2007 36.2281 38.3255 35.9152C38.4094 35.7051 38.4954 35.495 38.5814 35.2849C38.6674 35.0749 38.7533 34.865 38.8373 34.655C38.8692 34.5669 38.9252 34.5669 38.9972 34.5669H40.4446C40.4748 34.5609 40.5061 34.5666 40.5322 34.583C40.5582 34.5994 40.577 34.6251 40.5846 34.655C40.8285 35.3031 41.0884 35.9712 41.3323 36.5914C41.4341 36.8501 41.5365 37.1088 41.6391 37.3678L41.6393 37.3684C41.7825 37.73 41.9259 38.0922 42.068 38.4557C42.1793 38.7366 42.2875 39.0194 42.3954 39.3015ZM39.1251 37.5635H40.1567C40.3047 37.5635 40.3167 37.5395 40.2687 37.4075C40.2285 37.2911 40.1906 37.1825 40.1531 37.0752C40.1197 36.9798 40.0867 36.8853 40.0528 36.7874L39.6769 35.7072C39.5491 36.0505 39.4326 36.38 39.3182 36.7034C39.2287 36.9566 39.1405 37.206 39.0492 37.4555C39.0092 37.5635 39.0332 37.5635 39.1251 37.5635Z" fill="#E45620"/>
        <path d="M86.2791 34.691C86.2791 34.591 86.2431 34.563 86.1432 34.563H84.7517C84.7143 34.5605 84.677 34.5695 84.6448 34.5888C84.6127 34.6081 84.5872 34.6368 84.5718 34.671L83.3722 36.7234L83.3482 36.7594C83.3532 36.7048 83.3532 36.6499 83.3482 36.5954C83.3343 36.621 83.3216 36.5841 83.3096 36.5489C83.3009 36.5237 83.2926 36.4993 83.2843 36.4993C83.2761 36.4993 83.268 36.5219 83.2593 36.5459C83.2467 36.5809 83.2329 36.6191 83.2163 36.5954V36.6754C83.0164 36.3273 82.8164 35.9902 82.6165 35.6532C82.4166 35.3161 82.2167 34.979 82.0167 34.631C82.0002 34.5989 81.9737 34.573 81.9413 34.5572C81.9089 34.5413 81.8723 34.5363 81.8368 34.543H80.4454C80.3454 34.543 80.3094 34.575 80.3094 34.675V39.74C80.3094 39.848 80.3454 39.88 80.4533 39.876H81.5529C81.6889 39.876 81.7209 39.836 81.7209 39.708V36.6234C81.7209 36.6159 81.7204 36.6082 81.7199 36.6004C81.7194 36.5948 81.7189 36.5892 81.7184 36.5835C81.7146 36.5427 81.7108 36.5014 81.7408 36.4713C81.7516 36.4716 81.762 36.4753 81.7706 36.4817C81.7791 36.4882 81.7855 36.4971 81.7888 36.5073C81.9503 36.7925 82.1117 37.0767 82.2732 37.3609L82.2747 37.3635C82.4366 37.6486 82.5985 37.9336 82.7605 38.2197C82.7885 38.2717 82.8084 38.3037 82.8724 38.3037H83.7241C83.7841 38.3037 83.8121 38.2717 83.84 38.2197C84.0386 37.8646 84.2402 37.5111 84.442 37.1572C84.5654 36.9409 84.6888 36.7244 84.8117 36.5073C84.8117 36.5073 84.8117 36.4753 84.8597 36.4713C84.8953 36.4684 84.889 36.5249 84.8835 36.5755C84.8815 36.5931 84.8797 36.61 84.8797 36.6234V39.704C84.8797 39.832 84.9116 39.876 85.0476 39.872H86.1472C86.2551 39.872 86.2911 39.844 86.2911 39.736V34.675L86.2791 34.691Z" fill="#E45620"/>
        <path d="M57.6181 38.7518C58.3218 38.7598 58.5977 37.7756 58.5977 35.6952L58.6017 34.915C58.6022 34.8725 58.6111 34.8305 58.6279 34.7913C58.6446 34.7522 58.6689 34.7168 58.6994 34.6871C58.7298 34.6573 58.7658 34.6339 58.8053 34.6181C58.8448 34.6023 58.887 34.5945 58.9296 34.595H62.2803C62.321 34.595 62.36 34.6109 62.3892 34.6393C62.4183 34.6677 62.4352 34.7063 62.4362 34.747V39.724C62.4352 39.7647 62.4183 39.8034 62.3892 39.8318C62.36 39.8602 62.321 39.8761 62.2803 39.876H61.1967C61.156 39.8761 61.117 39.8602 61.0878 39.8318C61.0587 39.8034 61.0418 39.7647 61.0408 39.724V35.9432C61.0397 35.9026 61.0228 35.8639 60.9937 35.8355C60.9646 35.8071 60.9255 35.7912 60.8848 35.7912H60.1131C60.0731 35.7912 60.0346 35.8065 60.0056 35.8341C59.9766 35.8616 59.9592 35.8993 59.9572 35.9393C59.8892 39.1639 58.9456 39.888 57.6301 39.9401C57.6093 39.9411 57.5884 39.938 57.5688 39.9309C57.5493 39.9238 57.5313 39.9128 57.516 39.8987C57.5007 39.8845 57.4884 39.8674 57.4799 39.8484C57.4713 39.8294 57.4666 39.8089 57.4661 39.788V38.8838C57.4666 38.8649 57.4709 38.8462 57.479 38.8291C57.487 38.8119 57.4986 38.7966 57.5129 38.7842C57.5272 38.7718 57.544 38.7625 57.5621 38.7569C57.5802 38.7513 57.5993 38.7496 57.6181 38.7518Z" fill="#E45620"/>
    </g>
    <defs>
        <clipPath id="clip0">
            <rect width="115.2" height="40" fill="white"/>
        </clipPath>
    </defs>
</svg>
